<?xml version="1.0" encoding="utf-8" standalone="no"?>
<!DOCTYPE svg PUBLIC "-//W3C//DTD SVG 1.1//EN"
  "http://www.w3.org/Graphics/SVG/1.1/DTD/svg11.dtd">
<svg xmlns:xlink="http://www.w3.org/1999/xlink" width="864pt" height="864pt" viewBox="0 0 864 864" xmlns="http://www.w3.org/2000/svg" version="1.1">
 <metadata>
  <rdf:RDF xmlns:dc="http://purl.org/dc/elements/1.1/" xmlns:cc="http://creativecommons.org/ns#" xmlns:rdf="http://www.w3.org/1999/02/22-rdf-syntax-ns#">
   <cc:Work>
    <dc:type rdf:resource="http://purl.org/dc/dcmitype/StillImage"/>
    <dc:date>2024-04-30T15:11:52.566453</dc:date>
    <dc:format>image/svg+xml</dc:format>
    <dc:creator>
     <cc:Agent>
      <dc:title>Matplotlib v3.8.0, https://matplotlib.org/</dc:title>
     </cc:Agent>
    </dc:creator>
   </cc:Work>
  </rdf:RDF>
 </metadata>
 <defs>
  <style type="text/css">*{stroke-linejoin: round; stroke-linecap: butt}</style>
 </defs>
 <g id="figure_1">
  <g id="patch_1">
   <path d="M 0 864 
L 864 864 
L 864 0 
L 0 0 
z
" style="fill: #ffffff"/>
  </g>
  <g id="axes_1">
   <g id="patch_2">
    <path d="M 108 768.96 
L 777.6 768.96 
L 777.6 103.68 
L 108 103.68 
z
" style="fill: #e5e5e5"/>
   </g>
   <g id="matplotlib.axis_1">
    <g id="xtick_1">
     <g id="line2d_1">
      <path d="M 108 768.96 
L 108 103.68 
" clip-path="url(#pd3f02dede5)" style="fill: none; stroke-dasharray: 2.96,1.28; stroke-dashoffset: 0; stroke: #d3d3d3; stroke-width: 0.8"/>
     </g>
     <g id="line2d_2">
      <defs>
       <path id="m3db09b895f" d="M 0 0 
L 0 3.5 
" style="stroke: #555555; stroke-width: 0.8"/>
      </defs>
      <g>
       <use xlink:href="#m3db09b895f" x="108" y="768.96" style="fill: #555555; stroke: #555555; stroke-width: 0.8"/>
      </g>
     </g>
     <g id="text_1">
      <!-- 0 -->
      <g style="fill: #555555" transform="translate(104.81875 783.558437) scale(0.1 -0.1)">
       <defs>
        <path id="DejaVuSans-30" d="M 2034 4250 
Q 1547 4250 1301 3770 
Q 1056 3291 1056 2328 
Q 1056 1369 1301 889 
Q 1547 409 2034 409 
Q 2525 409 2770 889 
Q 3016 1369 3016 2328 
Q 3016 3291 2770 3770 
Q 2525 4250 2034 4250 
z
M 2034 4750 
Q 2819 4750 3233 4129 
Q 3647 3509 3647 2328 
Q 3647 1150 3233 529 
Q 2819 -91 2034 -91 
Q 1250 -91 836 529 
Q 422 1150 422 2328 
Q 422 3509 836 4129 
Q 1250 4750 2034 4750 
z
" transform="scale(0.015625)"/>
       </defs>
       <use xlink:href="#DejaVuSans-30"/>
      </g>
     </g>
    </g>
    <g id="xtick_2">
     <g id="line2d_3">
      <path d="M 241.92 768.96 
L 241.92 103.68 
" clip-path="url(#pd3f02dede5)" style="fill: none; stroke-dasharray: 2.96,1.28; stroke-dashoffset: 0; stroke: #d3d3d3; stroke-width: 0.8"/>
     </g>
     <g id="line2d_4">
      <g>
       <use xlink:href="#m3db09b895f" x="241.92" y="768.96" style="fill: #555555; stroke: #555555; stroke-width: 0.8"/>
      </g>
     </g>
     <g id="text_2">
      <!-- 5 -->
      <g style="fill: #555555" transform="translate(238.73875 783.558437) scale(0.1 -0.1)">
       <defs>
        <path id="DejaVuSans-35" d="M 691 4666 
L 3169 4666 
L 3169 4134 
L 1269 4134 
L 1269 2991 
Q 1406 3038 1543 3061 
Q 1681 3084 1819 3084 
Q 2600 3084 3056 2656 
Q 3513 2228 3513 1497 
Q 3513 744 3044 326 
Q 2575 -91 1722 -91 
Q 1428 -91 1123 -41 
Q 819 9 494 109 
L 494 744 
Q 775 591 1075 516 
Q 1375 441 1709 441 
Q 2250 441 2565 725 
Q 2881 1009 2881 1497 
Q 2881 1984 2565 2268 
Q 2250 2553 1709 2553 
Q 1456 2553 1204 2497 
Q 953 2441 691 2322 
L 691 4666 
z
" transform="scale(0.015625)"/>
       </defs>
       <use xlink:href="#DejaVuSans-35"/>
      </g>
     </g>
    </g>
    <g id="xtick_3">
     <g id="line2d_5">
      <path d="M 375.84 768.96 
L 375.84 103.68 
" clip-path="url(#pd3f02dede5)" style="fill: none; stroke-dasharray: 2.96,1.28; stroke-dashoffset: 0; stroke: #d3d3d3; stroke-width: 0.8"/>
     </g>
     <g id="line2d_6">
      <g>
       <use xlink:href="#m3db09b895f" x="375.84" y="768.96" style="fill: #555555; stroke: #555555; stroke-width: 0.8"/>
      </g>
     </g>
     <g id="text_3">
      <!-- 10 -->
      <g style="fill: #555555" transform="translate(369.4775 783.558437) scale(0.1 -0.1)">
       <defs>
        <path id="DejaVuSans-31" d="M 794 531 
L 1825 531 
L 1825 4091 
L 703 3866 
L 703 4441 
L 1819 4666 
L 2450 4666 
L 2450 531 
L 3481 531 
L 3481 0 
L 794 0 
L 794 531 
z
" transform="scale(0.015625)"/>
       </defs>
       <use xlink:href="#DejaVuSans-31"/>
       <use xlink:href="#DejaVuSans-30" x="63.623047"/>
      </g>
     </g>
    </g>
    <g id="xtick_4">
     <g id="line2d_7">
      <path d="M 509.76 768.96 
L 509.76 103.68 
" clip-path="url(#pd3f02dede5)" style="fill: none; stroke-dasharray: 2.96,1.28; stroke-dashoffset: 0; stroke: #d3d3d3; stroke-width: 0.8"/>
     </g>
     <g id="line2d_8">
      <g>
       <use xlink:href="#m3db09b895f" x="509.76" y="768.96" style="fill: #555555; stroke: #555555; stroke-width: 0.8"/>
      </g>
     </g>
     <g id="text_4">
      <!-- 15 -->
      <g style="fill: #555555" transform="translate(503.3975 783.558437) scale(0.1 -0.1)">
       <use xlink:href="#DejaVuSans-31"/>
       <use xlink:href="#DejaVuSans-35" x="63.623047"/>
      </g>
     </g>
    </g>
    <g id="xtick_5">
     <g id="line2d_9">
      <path d="M 643.68 768.96 
L 643.68 103.68 
" clip-path="url(#pd3f02dede5)" style="fill: none; stroke-dasharray: 2.96,1.28; stroke-dashoffset: 0; stroke: #d3d3d3; stroke-width: 0.8"/>
     </g>
     <g id="line2d_10">
      <g>
       <use xlink:href="#m3db09b895f" x="643.68" y="768.96" style="fill: #555555; stroke: #555555; stroke-width: 0.8"/>
      </g>
     </g>
     <g id="text_5">
      <!-- 20 -->
      <g style="fill: #555555" transform="translate(637.3175 783.558437) scale(0.1 -0.1)">
       <defs>
        <path id="DejaVuSans-32" d="M 1228 531 
L 3431 531 
L 3431 0 
L 469 0 
L 469 531 
Q 828 903 1448 1529 
Q 2069 2156 2228 2338 
Q 2531 2678 2651 2914 
Q 2772 3150 2772 3378 
Q 2772 3750 2511 3984 
Q 2250 4219 1831 4219 
Q 1534 4219 1204 4116 
Q 875 4013 500 3803 
L 500 4441 
Q 881 4594 1212 4672 
Q 1544 4750 1819 4750 
Q 2544 4750 2975 4387 
Q 3406 4025 3406 3419 
Q 3406 3131 3298 2873 
Q 3191 2616 2906 2266 
Q 2828 2175 2409 1742 
Q 1991 1309 1228 531 
z
" transform="scale(0.015625)"/>
       </defs>
       <use xlink:href="#DejaVuSans-32"/>
       <use xlink:href="#DejaVuSans-30" x="63.623047"/>
      </g>
     </g>
    </g>
    <g id="xtick_6">
     <g id="line2d_11">
      <path d="M 777.6 768.96 
L 777.6 103.68 
" clip-path="url(#pd3f02dede5)" style="fill: none; stroke-dasharray: 2.96,1.28; stroke-dashoffset: 0; stroke: #d3d3d3; stroke-width: 0.8"/>
     </g>
     <g id="line2d_12">
      <g>
       <use xlink:href="#m3db09b895f" x="777.6" y="768.96" style="fill: #555555; stroke: #555555; stroke-width: 0.8"/>
      </g>
     </g>
     <g id="text_6">
      <!-- 25 -->
      <g style="fill: #555555" transform="translate(771.2375 783.558437) scale(0.1 -0.1)">
       <use xlink:href="#DejaVuSans-32"/>
       <use xlink:href="#DejaVuSans-35" x="63.623047"/>
      </g>
     </g>
    </g>
    <g id="text_7">
     <!-- $x_1$ -->
     <g style="fill: #555555" transform="translate(436.38 798.75625) scale(0.12 -0.12)">
      <defs>
       <path id="DejaVuSans-Oblique-78" d="M 3841 3500 
L 2234 1784 
L 3219 0 
L 2559 0 
L 1819 1388 
L 531 0 
L -166 0 
L 1556 1844 
L 641 3500 
L 1300 3500 
L 1972 2234 
L 3144 3500 
L 3841 3500 
z
" transform="scale(0.015625)"/>
      </defs>
      <use xlink:href="#DejaVuSans-Oblique-78" transform="translate(0 0.3125)"/>
      <use xlink:href="#DejaVuSans-31" transform="translate(59.179688 -16.09375) scale(0.7)"/>
     </g>
    </g>
   </g>
   <g id="matplotlib.axis_2">
    <g id="ytick_1">
     <g id="line2d_13">
      <path d="M 108 768.96 
L 777.6 768.96 
" clip-path="url(#pd3f02dede5)" style="fill: none; stroke-dasharray: 2.96,1.28; stroke-dashoffset: 0; stroke: #d3d3d3; stroke-width: 0.8"/>
     </g>
     <g id="line2d_14">
      <defs>
       <path id="mf2225ea685" d="M 0 0 
L -3.5 0 
" style="stroke: #555555; stroke-width: 0.8"/>
      </defs>
      <g>
       <use xlink:href="#mf2225ea685" x="108" y="768.96" style="fill: #555555; stroke: #555555; stroke-width: 0.8"/>
      </g>
     </g>
     <g id="text_8">
      <!-- −5.0 -->
      <g style="fill: #555555" transform="translate(76.717187 772.759219) scale(0.1 -0.1)">
       <defs>
        <path id="DejaVuSans-2212" d="M 678 2272 
L 4684 2272 
L 4684 1741 
L 678 1741 
L 678 2272 
z
" transform="scale(0.015625)"/>
        <path id="DejaVuSans-2e" d="M 684 794 
L 1344 794 
L 1344 0 
L 684 0 
L 684 794 
z
" transform="scale(0.015625)"/>
       </defs>
       <use xlink:href="#DejaVuSans-2212"/>
       <use xlink:href="#DejaVuSans-35" x="83.789062"/>
       <use xlink:href="#DejaVuSans-2e" x="147.412109"/>
       <use xlink:href="#DejaVuSans-30" x="179.199219"/>
      </g>
     </g>
    </g>
    <g id="ytick_2">
     <g id="line2d_15">
      <path d="M 108 685.8 
L 777.6 685.8 
" clip-path="url(#pd3f02dede5)" style="fill: none; stroke-dasharray: 2.96,1.28; stroke-dashoffset: 0; stroke: #d3d3d3; stroke-width: 0.8"/>
     </g>
     <g id="line2d_16">
      <g>
       <use xlink:href="#mf2225ea685" x="108" y="685.8" style="fill: #555555; stroke: #555555; stroke-width: 0.8"/>
      </g>
     </g>
     <g id="text_9">
      <!-- −2.5 -->
      <g style="fill: #555555" transform="translate(76.717187 689.599219) scale(0.1 -0.1)">
       <use xlink:href="#DejaVuSans-2212"/>
       <use xlink:href="#DejaVuSans-32" x="83.789062"/>
       <use xlink:href="#DejaVuSans-2e" x="147.412109"/>
       <use xlink:href="#DejaVuSans-35" x="179.199219"/>
      </g>
     </g>
    </g>
    <g id="ytick_3">
     <g id="line2d_17">
      <path d="M 108 602.64 
L 777.6 602.64 
" clip-path="url(#pd3f02dede5)" style="fill: none; stroke-dasharray: 2.96,1.28; stroke-dashoffset: 0; stroke: #d3d3d3; stroke-width: 0.8"/>
     </g>
     <g id="line2d_18">
      <g>
       <use xlink:href="#mf2225ea685" x="108" y="602.64" style="fill: #555555; stroke: #555555; stroke-width: 0.8"/>
      </g>
     </g>
     <g id="text_10">
      <!-- 0.0 -->
      <g style="fill: #555555" transform="translate(85.096875 606.439219) scale(0.1 -0.1)">
       <use xlink:href="#DejaVuSans-30"/>
       <use xlink:href="#DejaVuSans-2e" x="63.623047"/>
       <use xlink:href="#DejaVuSans-30" x="95.410156"/>
      </g>
     </g>
    </g>
    <g id="ytick_4">
     <g id="line2d_19">
      <path d="M 108 519.48 
L 777.6 519.48 
" clip-path="url(#pd3f02dede5)" style="fill: none; stroke-dasharray: 2.96,1.28; stroke-dashoffset: 0; stroke: #d3d3d3; stroke-width: 0.8"/>
     </g>
     <g id="line2d_20">
      <g>
       <use xlink:href="#mf2225ea685" x="108" y="519.48" style="fill: #555555; stroke: #555555; stroke-width: 0.8"/>
      </g>
     </g>
     <g id="text_11">
      <!-- 2.5 -->
      <g style="fill: #555555" transform="translate(85.096875 523.279219) scale(0.1 -0.1)">
       <use xlink:href="#DejaVuSans-32"/>
       <use xlink:href="#DejaVuSans-2e" x="63.623047"/>
       <use xlink:href="#DejaVuSans-35" x="95.410156"/>
      </g>
     </g>
    </g>
    <g id="ytick_5">
     <g id="line2d_21">
      <path d="M 108 436.32 
L 777.6 436.32 
" clip-path="url(#pd3f02dede5)" style="fill: none; stroke-dasharray: 2.96,1.28; stroke-dashoffset: 0; stroke: #d3d3d3; stroke-width: 0.8"/>
     </g>
     <g id="line2d_22">
      <g>
       <use xlink:href="#mf2225ea685" x="108" y="436.32" style="fill: #555555; stroke: #555555; stroke-width: 0.8"/>
      </g>
     </g>
     <g id="text_12">
      <!-- 5.0 -->
      <g style="fill: #555555" transform="translate(85.096875 440.119219) scale(0.1 -0.1)">
       <use xlink:href="#DejaVuSans-35"/>
       <use xlink:href="#DejaVuSans-2e" x="63.623047"/>
       <use xlink:href="#DejaVuSans-30" x="95.410156"/>
      </g>
     </g>
    </g>
    <g id="ytick_6">
     <g id="line2d_23">
      <path d="M 108 353.16 
L 777.6 353.16 
" clip-path="url(#pd3f02dede5)" style="fill: none; stroke-dasharray: 2.96,1.28; stroke-dashoffset: 0; stroke: #d3d3d3; stroke-width: 0.8"/>
     </g>
     <g id="line2d_24">
      <g>
       <use xlink:href="#mf2225ea685" x="108" y="353.16" style="fill: #555555; stroke: #555555; stroke-width: 0.8"/>
      </g>
     </g>
     <g id="text_13">
      <!-- 7.5 -->
      <g style="fill: #555555" transform="translate(85.096875 356.959219) scale(0.1 -0.1)">
       <defs>
        <path id="DejaVuSans-37" d="M 525 4666 
L 3525 4666 
L 3525 4397 
L 1831 0 
L 1172 0 
L 2766 4134 
L 525 4134 
L 525 4666 
z
" transform="scale(0.015625)"/>
       </defs>
       <use xlink:href="#DejaVuSans-37"/>
       <use xlink:href="#DejaVuSans-2e" x="63.623047"/>
       <use xlink:href="#DejaVuSans-35" x="95.410156"/>
      </g>
     </g>
    </g>
    <g id="ytick_7">
     <g id="line2d_25">
      <path d="M 108 270 
L 777.6 270 
" clip-path="url(#pd3f02dede5)" style="fill: none; stroke-dasharray: 2.96,1.28; stroke-dashoffset: 0; stroke: #d3d3d3; stroke-width: 0.8"/>
     </g>
     <g id="line2d_26">
      <g>
       <use xlink:href="#mf2225ea685" x="108" y="270" style="fill: #555555; stroke: #555555; stroke-width: 0.8"/>
      </g>
     </g>
     <g id="text_14">
      <!-- 10.0 -->
      <g style="fill: #555555" transform="translate(78.734375 273.799219) scale(0.1 -0.1)">
       <use xlink:href="#DejaVuSans-31"/>
       <use xlink:href="#DejaVuSans-30" x="63.623047"/>
       <use xlink:href="#DejaVuSans-2e" x="127.246094"/>
       <use xlink:href="#DejaVuSans-30" x="159.033203"/>
      </g>
     </g>
    </g>
    <g id="ytick_8">
     <g id="line2d_27">
      <path d="M 108 186.84 
L 777.6 186.84 
" clip-path="url(#pd3f02dede5)" style="fill: none; stroke-dasharray: 2.96,1.28; stroke-dashoffset: 0; stroke: #d3d3d3; stroke-width: 0.8"/>
     </g>
     <g id="line2d_28">
      <g>
       <use xlink:href="#mf2225ea685" x="108" y="186.84" style="fill: #555555; stroke: #555555; stroke-width: 0.8"/>
      </g>
     </g>
     <g id="text_15">
      <!-- 12.5 -->
      <g style="fill: #555555" transform="translate(78.734375 190.639219) scale(0.1 -0.1)">
       <use xlink:href="#DejaVuSans-31"/>
       <use xlink:href="#DejaVuSans-32" x="63.623047"/>
       <use xlink:href="#DejaVuSans-2e" x="127.246094"/>
       <use xlink:href="#DejaVuSans-35" x="159.033203"/>
      </g>
     </g>
    </g>
    <g id="ytick_9">
     <g id="line2d_29">
      <path d="M 108 103.68 
L 777.6 103.68 
" clip-path="url(#pd3f02dede5)" style="fill: none; stroke-dasharray: 2.96,1.28; stroke-dashoffset: 0; stroke: #d3d3d3; stroke-width: 0.8"/>
     </g>
     <g id="line2d_30">
      <g>
       <use xlink:href="#mf2225ea685" x="108" y="103.68" style="fill: #555555; stroke: #555555; stroke-width: 0.8"/>
      </g>
     </g>
     <g id="text_16">
      <!-- 15.0 -->
      <g style="fill: #555555" transform="translate(78.734375 107.479219) scale(0.1 -0.1)">
       <use xlink:href="#DejaVuSans-31"/>
       <use xlink:href="#DejaVuSans-35" x="63.623047"/>
       <use xlink:href="#DejaVuSans-2e" x="127.246094"/>
       <use xlink:href="#DejaVuSans-30" x="159.033203"/>
      </g>
     </g>
    </g>
    <g id="text_17">
     <!-- $x_2$ -->
     <g style="fill: #555555" transform="translate(70.221562 442.74) rotate(-90) scale(0.12 -0.12)">
      <use xlink:href="#DejaVuSans-Oblique-78" transform="translate(0 0.3125)"/>
      <use xlink:href="#DejaVuSans-32" transform="translate(59.179688 -16.09375) scale(0.7)"/>
     </g>
    </g>
   </g>
   <g id="PolyCollection_1">
    <path d="M -427.68 -970.168696 
L -427.68 -970.168696 
L -426.473514 -968.035135 
L -425.267027 -965.901575 
L -424.060541 -963.768014 
L -422.854054 -961.634454 
L -421.647568 -959.500893 
L -420.441081 -957.367333 
L -419.234595 -955.233772 
L -418.028108 -953.100212 
L -416.821622 -950.966651 
L -415.615135 -948.83309 
L -414.408649 -946.69953 
L -413.202162 -944.565969 
L -411.995676 -942.432409 
L -410.789189 -940.298848 
L -409.582703 -938.165288 
L -408.376216 -936.031727 
L -407.16973 -933.898167 
L -405.963243 -931.764606 
L -404.756757 -929.631046 
L -403.55027 -927.497485 
L -402.343784 -925.363925 
L -401.137297 -923.230364 
L -399.930811 -921.096804 
L -398.724324 -918.963243 
L -397.517838 -916.829683 
L -396.311351 -914.696122 
L -395.104865 -912.562562 
L -393.898378 -910.429001 
L -392.691892 -908.295441 
L -391.485405 -906.16188 
L -390.278919 -904.02832 
L -389.072432 -901.894759 
L -387.865946 -899.761199 
L -386.659459 -897.627638 
L -385.452973 -895.494078 
L -384.246486 -893.360517 
L -383.04 -891.226957 
L -381.833514 -889.093396 
L -380.627027 -886.959835 
L -379.420541 -884.826275 
L -378.214054 -882.692714 
L -377.007568 -880.559154 
L -375.801081 -878.425593 
L -374.594595 -876.292033 
L -373.388108 -874.158472 
L -372.181622 -872.024912 
L -370.975135 -869.891351 
L -369.768649 -867.757791 
L -368.562162 -865.62423 
L -367.355676 -863.49067 
L -366.149189 -861.357109 
L -364.942703 -859.223549 
L -363.736216 -857.089988 
L -362.52973 -854.956428 
L -361.323243 -852.822867 
L -360.116757 -850.689307 
L -358.91027 -848.555746 
L -357.703784 -846.422186 
L -356.497297 -844.288625 
L -355.290811 -842.155065 
L -354.084324 -840.021504 
L -352.877838 -837.887944 
L -351.671351 -835.754383 
L -350.464865 -833.620823 
L -349.258378 -831.487262 
L -348.051892 -829.353702 
L -346.845405 -827.220141 
L -345.638919 -825.08658 
L -344.432432 -822.95302 
L -343.225946 -820.819459 
L -342.019459 -818.685899 
L -340.812973 -816.552338 
L -339.606486 -814.418778 
L -338.4 -812.285217 
L -337.193514 -810.151657 
L -335.987027 -808.018096 
L -334.780541 -805.884536 
L -333.574054 -803.750975 
L -332.367568 -801.617415 
L -331.161081 -799.483854 
L -329.954595 -797.350294 
L -328.748108 -795.216733 
L -327.541622 -793.083173 
L -326.335135 -790.949612 
L -325.128649 -788.816052 
L -323.922162 -786.682491 
L -322.715676 -784.548931 
L -321.509189 -782.41537 
L -320.302703 -780.28181 
L -319.096216 -778.148249 
L -317.88973 -776.014689 
L -316.683243 -773.881128 
L -315.476757 -771.747568 
L -314.27027 -769.614007 
L -313.063784 -767.480447 
L -311.857297 -765.346886 
L -310.650811 -763.213325 
L -309.444324 -761.079765 
L -308.237838 -758.946204 
L -307.031351 -756.812644 
L -305.824865 -754.679083 
L -304.618378 -752.545523 
L -303.411892 -750.411962 
L -302.205405 -748.278402 
L -300.998919 -746.144841 
L -299.792432 -744.011281 
L -298.585946 -741.87772 
L -297.379459 -739.74416 
L -296.172973 -737.610599 
L -294.966486 -735.477039 
L -293.76 -733.343478 
L -292.553514 -731.209918 
L -291.347027 -729.076357 
L -290.140541 -726.942797 
L -288.934054 -724.809236 
L -287.727568 -722.675676 
L -286.521081 -720.542115 
L -285.314595 -718.408555 
L -284.108108 -716.274994 
L -282.901622 -714.141434 
L -281.695135 -712.007873 
L -280.488649 -709.874313 
L -279.282162 -707.740752 
L -278.075676 -705.607192 
L -276.869189 -703.473631 
L -275.662703 -701.340071 
L -274.456216 -699.20651 
L -273.24973 -697.072949 
L -272.043243 -694.939389 
L -270.836757 -692.805828 
L -269.63027 -690.672268 
L -268.423784 -688.538707 
L -267.217297 -686.405147 
L -266.010811 -684.271586 
L -264.804324 -682.138026 
L -263.597838 -680.004465 
L -262.391351 -677.870905 
L -261.184865 -675.737344 
L -259.978378 -673.603784 
L -258.771892 -671.470223 
L -257.565405 -669.336663 
L -256.358919 -667.203102 
L -255.152432 -665.069542 
L -253.945946 -662.935981 
L -252.739459 -660.802421 
L -251.532973 -658.66886 
L -250.326486 -656.5353 
L -249.12 -654.401739 
L -247.913514 -652.268179 
L -246.707027 -650.134618 
L -245.500541 -648.001058 
L -244.294054 -645.867497 
L -243.087568 -643.733937 
L -241.881081 -641.600376 
L -240.674595 -639.466816 
L -239.468108 -637.333255 
L -238.261622 -635.199694 
L -237.055135 -633.066134 
L -235.848649 -630.932573 
L -234.642162 -628.799013 
L -233.435676 -626.665452 
L -232.229189 -624.531892 
L -231.022703 -622.398331 
L -229.816216 -620.264771 
L -228.60973 -618.13121 
L -227.403243 -615.99765 
L -226.196757 -613.864089 
L -224.99027 -611.730529 
L -223.783784 -609.596968 
L -222.577297 -607.463408 
L -221.370811 -605.329847 
L -220.164324 -603.196287 
L -218.957838 -601.062726 
L -217.751351 -598.929166 
L -216.544865 -596.795605 
L -215.338378 -594.662045 
L -214.131892 -592.528484 
L -212.925405 -590.394924 
L -211.718919 -588.261363 
L -210.512432 -586.127803 
L -209.305946 -583.994242 
L -208.099459 -581.860682 
L -206.892973 -579.727121 
L -205.686486 -577.593561 
L -204.48 -575.46 
L -203.273514 -573.326439 
L -202.067027 -571.192879 
L -200.860541 -569.059318 
L -199.654054 -566.925758 
L -198.447568 -564.792197 
L -197.241081 -562.658637 
L -196.034595 -560.525076 
L -194.828108 -558.391516 
L -193.621622 -556.257955 
L -192.415135 -554.124395 
L -191.208649 -551.990834 
L -190.002162 -549.857274 
L -188.795676 -547.723713 
L -187.589189 -545.590153 
L -186.382703 -543.456592 
L -185.176216 -541.323032 
L -183.96973 -539.189471 
L -182.763243 -537.055911 
L -181.556757 -534.92235 
L -180.35027 -532.78879 
L -179.143784 -530.655229 
L -177.937297 -528.521669 
L -176.730811 -526.388108 
L -175.524324 -524.254548 
L -174.317838 -522.120987 
L -173.111351 -519.987427 
L -171.904865 -517.853866 
L -170.698378 -515.720306 
L -169.491892 -513.586745 
L -168.285405 -511.453184 
L -167.078919 -509.319624 
L -165.872432 -507.186063 
L -164.665946 -505.052503 
L -163.459459 -502.918942 
L -162.252973 -500.785382 
L -161.046486 -498.651821 
L -159.84 -496.518261 
L -158.633514 -494.3847 
L -157.427027 -492.25114 
L -156.220541 -490.117579 
L -155.014054 -487.984019 
L -153.807568 -485.850458 
L -152.601081 -483.716898 
L -151.394595 -481.583337 
L -150.188108 -479.449777 
L -148.981622 -477.316216 
L -147.775135 -475.182656 
L -146.568649 -473.049095 
L -145.362162 -470.915535 
L -144.155676 -468.781974 
L -142.949189 -466.648414 
L -141.742703 -464.514853 
L -140.536216 -462.381293 
L -139.32973 -460.247732 
L -138.123243 -458.114172 
L -136.916757 -455.980611 
L -135.71027 -453.847051 
L -134.503784 -451.71349 
L -133.297297 -449.579929 
L -132.090811 -447.446369 
L -130.884324 -445.312808 
L -129.677838 -443.179248 
L -128.471351 -441.045687 
L -127.264865 -438.912127 
L -126.058378 -436.778566 
L -124.851892 -434.645006 
L -123.645405 -432.511445 
L -122.438919 -430.377885 
L -121.232432 -428.244324 
L -120.025946 -426.110764 
L -118.819459 -423.977203 
L -117.612973 -421.843643 
L -116.406486 -419.710082 
L -115.2 -417.576522 
L -113.993514 -415.442961 
L -112.787027 -413.309401 
L -111.580541 -411.17584 
L -110.374054 -409.04228 
L -109.167568 -406.908719 
L -107.961081 -404.775159 
L -106.754595 -402.641598 
L -105.548108 -400.508038 
L -104.341622 -398.374477 
L -103.135135 -396.240917 
L -101.928649 -394.107356 
L -100.722162 -391.973796 
L -99.515676 -389.840235 
L -98.309189 -387.706675 
L -97.102703 -385.573114 
L -95.896216 -383.439553 
L -94.68973 -381.305993 
L -93.483243 -379.172432 
L -92.276757 -377.038872 
L -91.07027 -374.905311 
L -89.863784 -372.771751 
L -88.657297 -370.63819 
L -87.450811 -368.50463 
L -86.244324 -366.371069 
L -85.037838 -364.237509 
L -83.831351 -362.103948 
L -82.624865 -359.970388 
L -81.418378 -357.836827 
L -80.211892 -355.703267 
L -79.005405 -353.569706 
L -77.798919 -351.436146 
L -76.592432 -349.302585 
L -75.385946 -347.169025 
L -74.179459 -345.035464 
L -72.972973 -342.901904 
L -71.766486 -340.768343 
L -70.56 -338.634783 
L -69.353514 -336.501222 
L -68.147027 -334.367662 
L -66.940541 -332.234101 
L -65.734054 -330.100541 
L -64.527568 -327.96698 
L -63.321081 -325.83342 
L -62.114595 -323.699859 
L -60.908108 -321.566298 
L -59.701622 -319.432738 
L -58.495135 -317.299177 
L -57.288649 -315.165617 
L -56.082162 -313.032056 
L -54.875676 -310.898496 
L -53.669189 -308.764935 
L -52.462703 -306.631375 
L -51.256216 -304.497814 
L -50.04973 -302.364254 
L -48.843243 -300.230693 
L -47.636757 -298.097133 
L -46.43027 -295.963572 
L -45.223784 -293.830012 
L -44.017297 -291.696451 
L -42.810811 -289.562891 
L -41.604324 -287.42933 
L -40.397838 -285.29577 
L -39.191351 -283.162209 
L -37.984865 -281.028649 
L -36.778378 -278.895088 
L -35.571892 -276.761528 
L -34.365405 -274.627967 
L -33.158919 -272.494407 
L -31.952432 -270.360846 
L -30.745946 -268.227286 
L -29.539459 -266.093725 
L -28.332973 -263.960165 
L -27.126486 -261.826604 
L -25.92 -259.693043 
L -24.713514 -257.559483 
L -23.507027 -255.425922 
L -22.300541 -253.292362 
L -21.094054 -251.158801 
L -19.887568 -249.025241 
L -18.681081 -246.89168 
L -17.474595 -244.75812 
L -16.268108 -242.624559 
L -15.061622 -240.490999 
L -13.855135 -238.357438 
L -12.648649 -236.223878 
L -11.442162 -234.090317 
L -10.235676 -231.956757 
L -9.029189 -229.823196 
L -7.822703 -227.689636 
L -6.616216 -225.556075 
L -5.40973 -223.422515 
L -4.203243 -221.288954 
L -2.996757 -219.155394 
L -1.79027 -217.021833 
L -0.583784 -214.888273 
L 0.622703 -212.754712 
L 1.829189 -210.621152 
L 3.035676 -208.487591 
L 4.242162 -206.354031 
L 5.448649 -204.22047 
L 6.655135 -202.08691 
L 7.861622 -199.953349 
L 9.068108 -197.819788 
L 10.274595 -195.686228 
L 11.481081 -193.552667 
L 12.687568 -191.419107 
L 13.894054 -189.285546 
L 15.100541 -187.151986 
L 16.307027 -185.018425 
L 17.513514 -182.884865 
L 18.72 -180.751304 
L 19.926486 -178.617744 
L 21.132973 -176.484183 
L 22.339459 -174.350623 
L 23.545946 -172.217062 
L 24.752432 -170.083502 
L 25.958919 -167.949941 
L 27.165405 -165.816381 
L 28.371892 -163.68282 
L 29.578378 -161.54926 
L 30.784865 -159.415699 
L 31.991351 -157.282139 
L 33.197838 -155.148578 
L 34.404324 -153.015018 
L 35.610811 -150.881457 
L 36.817297 -148.747897 
L 38.023784 -146.614336 
L 39.23027 -144.480776 
L 40.436757 -142.347215 
L 41.643243 -140.213655 
L 42.84973 -138.080094 
L 44.056216 -135.946533 
L 45.262703 -133.812973 
L 46.469189 -131.679412 
L 47.675676 -129.545852 
L 48.882162 -127.412291 
L 50.088649 -125.278731 
L 51.295135 -123.14517 
L 52.501622 -121.01161 
L 53.708108 -118.878049 
L 54.914595 -116.744489 
L 56.121081 -114.610928 
L 57.327568 -112.477368 
L 58.534054 -110.343807 
L 59.740541 -108.210247 
L 60.947027 -106.076686 
L 62.153514 -103.943126 
L 63.36 -101.809565 
L 64.566486 -99.676005 
L 65.772973 -97.542444 
L 66.979459 -95.408884 
L 68.185946 -93.275323 
L 69.392432 -91.141763 
L 70.598919 -89.008202 
L 71.805405 -86.874642 
L 73.011892 -84.741081 
L 74.218378 -82.607521 
L 75.424865 -80.47396 
L 76.631351 -78.3404 
L 77.837838 -76.206839 
L 79.044324 -74.073278 
L 80.250811 -71.939718 
L 81.457297 -69.806157 
L 82.663784 -67.672597 
L 83.87027 -65.539036 
L 85.076757 -63.405476 
L 86.283243 -61.271915 
L 87.48973 -59.138355 
L 88.696216 -57.004794 
L 89.902703 -54.871234 
L 91.109189 -52.737673 
L 92.315676 -50.604113 
L 93.522162 -48.470552 
L 94.728649 -46.336992 
L 95.935135 -44.203431 
L 97.141622 -42.069871 
L 98.348108 -39.93631 
L 99.554595 -37.80275 
L 100.761081 -35.669189 
L 101.967568 -33.535629 
L 103.174054 -31.402068 
L 104.380541 -29.268508 
L 105.587027 -27.134947 
L 106.793514 -25.001387 
L 108 -22.867826 
L 109.206486 -20.734266 
L 110.412973 -18.600705 
L 111.619459 -16.467145 
L 112.825946 -14.333584 
L 114.032432 -12.200024 
L 115.238919 -10.066463 
L 116.445405 -7.932902 
L 117.651892 -5.799342 
L 118.858378 -3.665781 
L 120.064865 -1.532221 
L 121.271351 0.60134 
L 122.477838 2.7349 
L 123.684324 4.868461 
L 124.890811 7.002021 
L 126.097297 9.135582 
L 127.303784 11.269142 
L 128.51027 13.402703 
L 129.716757 15.536263 
L 130.923243 17.669824 
L 132.12973 19.803384 
L 133.336216 21.936945 
L 134.542703 24.070505 
L 135.749189 26.204066 
L 136.955676 28.337626 
L 138.162162 30.471187 
L 139.368649 32.604747 
L 140.575135 34.738308 
L 141.781622 36.871868 
L 142.988108 39.005429 
L 144.194595 41.138989 
L 145.401081 43.27255 
L 146.607568 45.40611 
L 147.814054 47.539671 
L 149.020541 49.673231 
L 150.227027 51.806792 
L 151.433514 53.940353 
L 152.64 56.073913 
L 153.846486 58.207474 
L 155.052973 60.341034 
L 156.259459 62.474595 
L 157.465946 64.608155 
L 158.672432 66.741716 
L 159.878919 68.875276 
L 161.085405 71.008837 
L 162.291892 73.142397 
L 163.498378 75.275958 
L 164.704865 77.409518 
L 165.911351 79.543079 
L 167.117838 81.676639 
L 168.324324 83.8102 
L 169.530811 85.94376 
L 170.737297 88.077321 
L 171.943784 90.210881 
L 173.15027 92.344442 
L 174.356757 94.478002 
L 175.563243 96.611563 
L 176.76973 98.745123 
L 177.976216 100.878684 
L 179.182703 103.012244 
L 180.389189 105.145805 
L 181.595676 107.279365 
L 182.802162 109.412926 
L 184.008649 111.546486 
L 185.215135 113.680047 
L 186.421622 115.813608 
L 187.628108 117.947168 
L 188.834595 120.080729 
L 190.041081 122.214289 
L 191.247568 124.34785 
L 192.454054 126.48141 
L 193.660541 128.614971 
L 194.867027 130.748531 
L 196.073514 132.882092 
L 197.28 135.015652 
L 198.486486 137.149213 
L 199.692973 139.282773 
L 200.899459 141.416334 
L 202.105946 143.549894 
L 203.312432 145.683455 
L 204.518919 147.817015 
L 205.725405 149.950576 
L 206.931892 152.084136 
L 208.138378 154.217697 
L 209.344865 156.351257 
L 210.551351 158.484818 
L 211.757838 160.618378 
L 212.964324 162.751939 
L 214.170811 164.885499 
L 215.377297 167.01906 
L 216.583784 169.15262 
L 217.79027 171.286181 
L 218.996757 173.419741 
L 220.203243 175.553302 
L 221.40973 177.686863 
L 222.616216 179.820423 
L 223.822703 181.953984 
L 225.029189 184.087544 
L 226.235676 186.221105 
L 227.442162 188.354665 
L 228.648649 190.488226 
L 229.855135 192.621786 
L 231.061622 194.755347 
L 232.268108 196.888907 
L 233.474595 199.022468 
L 234.681081 201.156028 
L 235.887568 203.289589 
L 237.094054 205.423149 
L 238.300541 207.55671 
L 239.507027 209.69027 
L 240.713514 211.823831 
L 241.92 213.957391 
L 243.126486 216.090952 
L 244.332973 218.224512 
L 245.539459 220.358073 
L 246.745946 222.491633 
L 247.952432 224.625194 
L 249.158919 226.758754 
L 250.365405 228.892315 
L 251.571892 231.025875 
L 252.778378 233.159436 
L 253.984865 235.292996 
L 255.191351 237.426557 
L 256.397838 239.560118 
L 257.604324 241.693678 
L 258.810811 243.827239 
L 260.017297 245.960799 
L 261.223784 248.09436 
L 262.43027 250.22792 
L 263.636757 252.361481 
L 264.843243 254.495041 
L 266.04973 256.628602 
L 267.256216 258.762162 
L 268.462703 260.895723 
L 269.669189 263.029283 
L 270.875676 265.162844 
L 272.082162 267.296404 
L 273.288649 269.429965 
L 274.495135 271.563525 
L 275.701622 273.697086 
L 276.908108 275.830646 
L 278.114595 277.964207 
L 279.321081 280.097767 
L 280.527568 282.231328 
L 281.734054 284.364888 
L 282.940541 286.498449 
L 284.147027 288.632009 
L 285.353514 290.76557 
L 286.56 292.89913 
L 287.766486 295.032691 
L 288.972973 297.166251 
L 290.179459 299.299812 
L 291.385946 301.433373 
L 292.592432 303.566933 
L 293.798919 305.700494 
L 295.005405 307.834054 
L 296.211892 309.967615 
L 297.418378 312.101175 
L 298.624865 314.234736 
L 299.831351 316.368296 
L 301.037838 318.501857 
L 302.244324 320.635417 
L 303.450811 322.768978 
L 304.657297 324.902538 
L 305.863784 327.036099 
L 307.07027 329.169659 
L 308.276757 331.30322 
L 309.483243 333.43678 
L 310.68973 335.570341 
L 311.896216 337.703901 
L 313.102703 339.837462 
L 314.309189 341.971022 
L 315.515676 344.104583 
L 316.722162 346.238143 
L 317.928649 348.371704 
L 319.135135 350.505264 
L 320.341622 352.638825 
L 321.548108 354.772385 
L 322.754595 356.905946 
L 323.961081 359.039506 
L 325.167568 361.173067 
L 326.374054 363.306627 
L 327.580541 365.440188 
L 328.787027 367.573749 
L 329.993514 369.707309 
L 331.2 371.84087 
L 332.406486 373.97443 
L 333.612973 376.107991 
L 334.819459 378.241551 
L 336.025946 380.375112 
L 337.232432 382.508672 
L 338.438919 384.642233 
L 339.645405 386.775793 
L 340.851892 388.909354 
L 342.058378 391.042914 
L 343.264865 393.176475 
L 344.471351 395.310035 
L 345.677838 397.443596 
L 346.884324 399.577156 
L 348.090811 401.710717 
L 349.297297 403.844277 
L 350.503784 405.977838 
L 351.71027 408.111398 
L 352.916757 410.244959 
L 354.123243 412.378519 
L 355.32973 414.51208 
L 356.536216 416.64564 
L 357.742703 418.779201 
L 358.949189 420.912761 
L 360.155676 423.046322 
L 361.362162 425.179882 
L 362.568649 427.313443 
L 363.775135 429.447004 
L 364.981622 431.580564 
L 366.188108 433.714125 
L 367.394595 435.847685 
L 368.601081 437.981246 
L 369.807568 440.114806 
L 371.014054 442.248367 
L 372.220541 444.381927 
L 373.427027 446.515488 
L 374.633514 448.649048 
L 375.84 450.782609 
L 377.046486 452.916169 
L 378.252973 455.04973 
L 379.459459 457.18329 
L 380.665946 459.316851 
L 381.872432 461.450411 
L 383.078919 463.583972 
L 384.285405 465.717532 
L 385.491892 467.851093 
L 386.698378 469.984653 
L 387.904865 472.118214 
L 389.111351 474.251774 
L 390.317838 476.385335 
L 391.524324 478.518895 
L 392.730811 480.652456 
L 393.937297 482.786016 
L 395.143784 484.919577 
L 396.35027 487.053137 
L 397.556757 489.186698 
L 398.763243 491.320259 
L 399.96973 493.453819 
L 401.176216 495.58738 
L 402.382703 497.72094 
L 403.589189 499.854501 
L 404.795676 501.988061 
L 406.002162 504.121622 
L 407.208649 506.255182 
L 408.415135 508.388743 
L 409.621622 510.522303 
L 410.828108 512.655864 
L 412.034595 514.789424 
L 413.241081 516.922985 
L 414.447568 519.056545 
L 415.654054 521.190106 
L 416.860541 523.323666 
L 418.067027 525.457227 
L 419.273514 527.590787 
L 420.48 529.724348 
L 421.686486 531.857908 
L 422.892973 533.991469 
L 424.099459 536.125029 
L 425.305946 538.25859 
L 426.512432 540.39215 
L 427.718919 542.525711 
L 428.925405 544.659271 
L 430.131892 546.792832 
L 431.338378 548.926392 
L 432.544865 551.059953 
L 433.751351 553.193514 
L 434.957838 555.327074 
L 436.164324 557.460635 
L 437.370811 559.594195 
L 438.577297 561.727756 
L 439.783784 563.861316 
L 440.99027 565.994877 
L 442.196757 568.128437 
L 443.403243 570.261998 
L 444.60973 572.395558 
L 445.816216 574.529119 
L 447.022703 576.571827 
L 448.229189 575.994139 
L 449.435676 575.416451 
L 450.642162 574.838763 
L 451.848649 574.261075 
L 453.055135 573.683387 
L 454.261622 573.105698 
L 455.468108 572.52801 
L 456.674595 571.950322 
L 457.881081 571.372634 
L 459.087568 570.794946 
L 460.294054 570.217258 
L 461.500541 569.63957 
L 462.707027 569.061882 
L 463.913514 568.484194 
L 465.12 567.906506 
L 466.326486 567.328818 
L 467.532973 566.75113 
L 468.739459 566.173442 
L 469.945946 565.595754 
L 471.152432 565.018066 
L 472.358919 564.440378 
L 473.565405 563.86269 
L 474.771892 563.285002 
L 475.978378 562.707314 
L 477.184865 562.129626 
L 478.391351 561.551937 
L 479.597838 560.974249 
L 480.804324 560.396561 
L 482.010811 559.818873 
L 483.217297 559.241185 
L 484.423784 558.663497 
L 485.63027 558.085809 
L 486.836757 557.508121 
L 488.043243 556.930433 
L 489.24973 556.352745 
L 490.456216 555.775057 
L 491.662703 555.197369 
L 492.869189 554.619681 
L 494.075676 554.041993 
L 495.282162 553.464305 
L 496.488649 552.886617 
L 497.695135 552.308929 
L 498.901622 551.731241 
L 500.108108 551.153553 
L 501.314595 550.575865 
L 502.521081 549.998176 
L 503.727568 549.420488 
L 504.934054 548.8428 
L 506.140541 548.265112 
L 507.347027 547.687424 
L 508.553514 547.109736 
L 509.76 546.532048 
L 510.966486 545.95436 
L 512.172973 545.376672 
L 513.379459 544.798984 
L 514.585946 544.221296 
L 515.792432 543.643608 
L 516.998919 543.06592 
L 518.205405 542.488232 
L 519.411892 541.910544 
L 520.618378 541.332856 
L 521.824865 540.755168 
L 523.031351 540.17748 
L 524.237838 539.599792 
L 525.444324 539.022104 
L 526.650811 538.444415 
L 527.857297 537.866727 
L 529.063784 537.289039 
L 530.27027 536.711351 
L 531.476757 536.133663 
L 532.683243 535.555975 
L 533.88973 534.978287 
L 535.096216 534.400599 
L 536.302703 533.822911 
L 537.509189 533.245223 
L 538.715676 532.667535 
L 539.922162 532.089847 
L 541.128649 531.512159 
L 542.335135 530.934471 
L 543.541622 530.356783 
L 544.748108 529.779095 
L 545.954595 529.201407 
L 547.161081 528.623719 
L 548.367568 528.046031 
L 549.574054 527.468343 
L 550.780541 526.890655 
L 551.987027 526.312966 
L 553.193514 525.735278 
L 554.4 525.15759 
L 555.606486 524.579902 
L 556.812973 524.002214 
L 558.019459 523.424526 
L 559.225946 522.846838 
L 560.432432 522.26915 
L 561.638919 521.691462 
L 562.845405 521.113774 
L 564.051892 520.536086 
L 565.258378 519.958398 
L 566.464865 519.38071 
L 567.671351 518.803022 
L 568.877838 518.225334 
L 570.084324 517.647646 
L 571.290811 517.069958 
L 572.497297 516.49227 
L 573.703784 515.914582 
L 574.91027 515.336894 
L 576.116757 514.759205 
L 577.323243 514.181517 
L 578.52973 513.603829 
L 579.736216 513.026141 
L 580.942703 512.448453 
L 582.149189 511.870765 
L 583.355676 511.293077 
L 584.562162 510.715389 
L 585.768649 510.137701 
L 586.975135 509.560013 
L 588.181622 508.982325 
L 589.388108 508.404637 
L 590.594595 507.826949 
L 591.801081 507.249261 
L 593.007568 506.671573 
L 594.214054 506.093885 
L 595.420541 505.516197 
L 596.627027 504.938509 
L 597.833514 504.360821 
L 599.04 503.783133 
L 600.246486 503.205444 
L 601.452973 502.627756 
L 602.659459 502.050068 
L 603.865946 501.47238 
L 605.072432 500.894692 
L 606.278919 500.317004 
L 607.485405 499.739316 
L 608.691892 499.161628 
L 609.898378 498.58394 
L 611.104865 498.006252 
L 612.311351 497.428564 
L 613.517838 496.850876 
L 614.724324 496.273188 
L 615.930811 495.6955 
L 617.137297 495.117812 
L 618.343784 494.540124 
L 619.55027 493.962436 
L 620.756757 493.384748 
L 621.963243 492.80706 
L 623.16973 492.229372 
L 624.376216 491.651683 
L 625.582703 491.073995 
L 626.789189 490.496307 
L 627.995676 489.918619 
L 629.202162 489.340931 
L 630.408649 488.763243 
L 631.615135 488.185555 
L 632.821622 487.607867 
L 634.028108 487.030179 
L 635.234595 486.452491 
L 636.441081 485.874803 
L 637.647568 485.297115 
L 638.854054 484.719427 
L 640.060541 484.141739 
L 641.267027 483.564051 
L 642.473514 482.986363 
L 643.68 482.408675 
L 644.886486 481.830987 
L 646.092973 481.253299 
L 647.299459 480.675611 
L 648.505946 480.097923 
L 649.712432 479.520234 
L 650.918919 478.942546 
L 652.125405 478.364858 
L 653.331892 477.78717 
L 654.538378 477.209482 
L 655.744865 476.631794 
L 656.951351 476.054106 
L 658.157838 475.476418 
L 659.364324 474.89873 
L 660.570811 474.321042 
L 661.777297 473.743354 
L 662.983784 473.165666 
L 664.19027 472.587978 
L 665.396757 472.01029 
L 666.603243 471.432602 
L 667.80973 470.854914 
L 669.016216 470.277226 
L 670.222703 469.699538 
L 671.429189 469.12185 
L 672.635676 468.544162 
L 673.842162 467.966473 
L 675.048649 467.388785 
L 676.255135 466.811097 
L 677.461622 466.233409 
L 678.668108 465.655721 
L 679.874595 465.078033 
L 681.081081 464.500345 
L 682.287568 463.922657 
L 683.494054 463.344969 
L 684.700541 462.767281 
L 685.907027 462.189593 
L 687.113514 461.611905 
L 688.32 461.034217 
L 689.526486 460.456529 
L 690.732973 459.878841 
L 691.939459 459.301153 
L 693.145946 458.723465 
L 694.352432 458.145777 
L 695.558919 457.568089 
L 696.765405 456.990401 
L 697.971892 456.412712 
L 699.178378 455.835024 
L 700.384865 455.257336 
L 701.591351 454.679648 
L 702.797838 454.10196 
L 704.004324 453.524272 
L 705.210811 452.946584 
L 706.417297 452.368896 
L 707.623784 451.791208 
L 708.83027 451.21352 
L 710.036757 450.635832 
L 711.243243 450.058144 
L 712.44973 449.480456 
L 713.656216 448.902768 
L 714.862703 448.32508 
L 716.069189 447.747392 
L 717.275676 447.169704 
L 718.482162 446.592016 
L 719.688649 446.014328 
L 720.895135 445.43664 
L 722.101622 444.858951 
L 723.308108 444.281263 
L 724.514595 443.703575 
L 725.721081 443.125887 
L 726.927568 442.548199 
L 728.134054 441.970511 
L 729.340541 441.392823 
L 730.547027 440.815135 
L 731.753514 440.237447 
L 732.96 439.659759 
L 734.166486 439.082071 
L 735.372973 438.504383 
L 736.579459 437.926695 
L 737.785946 437.349007 
L 738.992432 436.771319 
L 740.198919 436.193631 
L 741.405405 435.615943 
L 742.611892 435.038255 
L 743.818378 434.460567 
L 745.024865 433.882879 
L 746.231351 433.30519 
L 747.437838 432.727502 
L 748.644324 432.149814 
L 749.850811 431.572126 
L 751.057297 430.994438 
L 752.263784 430.41675 
L 753.47027 429.839062 
L 754.676757 429.261374 
L 755.883243 428.683686 
L 757.08973 428.105998 
L 758.296216 427.52831 
L 759.502703 426.950622 
L 760.709189 426.372934 
L 761.915676 425.795246 
L 763.122162 425.217558 
L 764.328649 424.63987 
L 765.535135 424.062182 
L 766.741622 423.484494 
L 767.948108 422.906806 
L 769.154595 422.329118 
L 770.361081 421.75143 
L 771.567568 421.173741 
L 772.774054 420.596053 
L 773.980541 420.018365 
L 775.187027 419.440677 
L 776.393514 418.862989 
L 777.6 418.285301 
L 777.6 418.285301 
L 777.6 418.285301 
L 776.393514 418.862989 
L 775.187027 419.440677 
L 773.980541 420.018365 
L 772.774054 420.596053 
L 771.567568 421.173741 
L 770.361081 421.75143 
L 769.154595 422.329118 
L 767.948108 422.906806 
L 766.741622 423.484494 
L 765.535135 424.062182 
L 764.328649 424.63987 
L 763.122162 425.217558 
L 761.915676 425.795246 
L 760.709189 426.372934 
L 759.502703 426.950622 
L 758.296216 427.52831 
L 757.08973 428.105998 
L 755.883243 428.683686 
L 754.676757 429.261374 
L 753.47027 429.839062 
L 752.263784 430.41675 
L 751.057297 430.994438 
L 749.850811 431.572126 
L 748.644324 432.149814 
L 747.437838 432.727502 
L 746.231351 433.30519 
L 745.024865 433.882879 
L 743.818378 434.460567 
L 742.611892 435.038255 
L 741.405405 435.615943 
L 740.198919 436.193631 
L 738.992432 436.771319 
L 737.785946 437.349007 
L 736.579459 437.926695 
L 735.372973 438.504383 
L 734.166486 439.082071 
L 732.96 439.659759 
L 731.753514 440.237447 
L 730.547027 440.815135 
L 729.340541 441.392823 
L 728.134054 441.970511 
L 726.927568 442.548199 
L 725.721081 443.125887 
L 724.514595 443.703575 
L 723.308108 444.281263 
L 722.101622 444.858951 
L 720.895135 445.43664 
L 719.688649 446.014328 
L 718.482162 446.592016 
L 717.275676 447.169704 
L 716.069189 447.747392 
L 714.862703 448.32508 
L 713.656216 448.902768 
L 712.44973 449.480456 
L 711.243243 450.058144 
L 710.036757 450.635832 
L 708.83027 451.21352 
L 707.623784 451.791208 
L 706.417297 452.368896 
L 705.210811 452.946584 
L 704.004324 453.524272 
L 702.797838 454.10196 
L 701.591351 454.679648 
L 700.384865 455.257336 
L 699.178378 455.835024 
L 697.971892 456.412712 
L 696.765405 456.990401 
L 695.558919 457.568089 
L 694.352432 458.145777 
L 693.145946 458.723465 
L 691.939459 459.301153 
L 690.732973 459.416432 
L 689.526486 458.824216 
L 688.32 458.232 
L 687.113514 457.639784 
L 685.907027 457.047568 
L 684.700541 456.455351 
L 683.494054 455.863135 
L 682.287568 455.270919 
L 681.081081 454.678703 
L 679.874595 454.086486 
L 678.668108 453.49427 
L 677.461622 452.902054 
L 676.255135 452.309838 
L 675.048649 451.717622 
L 673.842162 451.125405 
L 672.635676 450.533189 
L 671.429189 449.940973 
L 670.222703 449.348757 
L 669.016216 448.756541 
L 667.80973 448.164324 
L 666.603243 447.572108 
L 665.396757 446.979892 
L 664.19027 446.387676 
L 662.983784 445.795459 
L 661.777297 445.203243 
L 660.570811 444.611027 
L 659.364324 444.018811 
L 658.157838 443.426595 
L 656.951351 442.834378 
L 655.744865 442.242162 
L 654.538378 441.649946 
L 653.331892 441.05773 
L 652.125405 440.465514 
L 650.918919 439.873297 
L 649.712432 439.281081 
L 648.505946 438.688865 
L 647.299459 438.096649 
L 646.092973 437.504432 
L 644.886486 436.912216 
L 643.68 436.32 
L 642.473514 435.727784 
L 641.267027 435.135568 
L 640.060541 434.543351 
L 638.854054 433.951135 
L 637.647568 433.358919 
L 636.441081 432.766703 
L 635.234595 432.174486 
L 634.028108 431.58227 
L 632.821622 430.990054 
L 631.615135 430.397838 
L 630.408649 429.805622 
L 629.202162 429.213405 
L 627.995676 428.621189 
L 626.789189 428.028973 
L 625.582703 427.436757 
L 624.376216 426.844541 
L 623.16973 426.252324 
L 621.963243 425.660108 
L 620.756757 425.067892 
L 619.55027 424.475676 
L 618.343784 423.883459 
L 617.137297 423.291243 
L 615.930811 422.699027 
L 614.724324 422.106811 
L 613.517838 421.514595 
L 612.311351 420.922378 
L 611.104865 420.330162 
L 609.898378 419.737946 
L 608.691892 419.14573 
L 607.485405 418.553514 
L 606.278919 417.961297 
L 605.072432 417.369081 
L 603.865946 416.776865 
L 602.659459 416.184649 
L 601.452973 415.592432 
L 600.246486 415.000216 
L 599.04 414.408 
L 597.833514 413.815784 
L 596.627027 413.223568 
L 595.420541 412.631351 
L 594.214054 412.039135 
L 593.007568 411.446919 
L 591.801081 410.854703 
L 590.594595 410.262486 
L 589.388108 409.67027 
L 588.181622 409.078054 
L 586.975135 408.485838 
L 585.768649 407.893622 
L 584.562162 407.301405 
L 583.355676 406.709189 
L 582.149189 406.116973 
L 580.942703 405.524757 
L 579.736216 404.932541 
L 578.52973 404.340324 
L 577.323243 403.748108 
L 576.116757 403.155892 
L 574.91027 402.563676 
L 573.703784 401.971459 
L 572.497297 401.379243 
L 571.290811 400.787027 
L 570.084324 400.194811 
L 568.877838 399.602595 
L 567.671351 399.010378 
L 566.464865 398.418162 
L 565.258378 397.825946 
L 564.051892 397.23373 
L 562.845405 396.641514 
L 561.638919 396.049297 
L 560.432432 395.457081 
L 559.225946 394.864865 
L 558.019459 394.272649 
L 556.812973 393.680432 
L 555.606486 393.088216 
L 554.4 392.496 
L 553.193514 391.903784 
L 551.987027 391.311568 
L 550.780541 390.719351 
L 549.574054 390.127135 
L 548.367568 389.534919 
L 547.161081 388.942703 
L 545.954595 388.350486 
L 544.748108 387.75827 
L 543.541622 387.166054 
L 542.335135 386.573838 
L 541.128649 385.981622 
L 539.922162 385.389405 
L 538.715676 384.797189 
L 537.509189 384.204973 
L 536.302703 383.612757 
L 535.096216 383.020541 
L 533.88973 382.428324 
L 532.683243 381.836108 
L 531.476757 381.243892 
L 530.27027 380.651676 
L 529.063784 380.059459 
L 527.857297 379.467243 
L 526.650811 378.875027 
L 525.444324 378.282811 
L 524.237838 377.690595 
L 523.031351 377.098378 
L 521.824865 376.506162 
L 520.618378 375.913946 
L 519.411892 375.32173 
L 518.205405 374.729514 
L 516.998919 374.137297 
L 515.792432 373.545081 
L 514.585946 372.952865 
L 513.379459 372.360649 
L 512.172973 371.768432 
L 510.966486 371.176216 
L 509.76 370.584 
L 508.553514 369.991784 
L 507.347027 369.399568 
L 506.140541 368.807351 
L 504.934054 368.215135 
L 503.727568 367.622919 
L 502.521081 367.030703 
L 501.314595 366.438486 
L 500.108108 365.84627 
L 498.901622 365.254054 
L 497.695135 364.661838 
L 496.488649 364.069622 
L 495.282162 363.477405 
L 494.075676 362.885189 
L 492.869189 362.292973 
L 491.662703 361.700757 
L 490.456216 361.108541 
L 489.24973 360.516324 
L 488.043243 359.924108 
L 486.836757 359.331892 
L 485.63027 358.739676 
L 484.423784 358.147459 
L 483.217297 357.555243 
L 482.010811 356.963027 
L 480.804324 356.370811 
L 479.597838 355.778595 
L 478.391351 355.186378 
L 477.184865 354.594162 
L 475.978378 354.001946 
L 474.771892 353.40973 
L 473.565405 352.817514 
L 472.358919 352.225297 
L 471.152432 351.633081 
L 469.945946 351.040865 
L 468.739459 350.448649 
L 467.532973 349.856432 
L 466.326486 349.264216 
L 465.12 348.672 
L 463.913514 348.079784 
L 462.707027 347.487568 
L 461.500541 346.895351 
L 460.294054 346.303135 
L 459.087568 345.710919 
L 457.881081 345.118703 
L 456.674595 344.526486 
L 455.468108 343.93427 
L 454.261622 343.342054 
L 453.055135 342.749838 
L 451.848649 342.157622 
L 450.642162 341.565405 
L 449.435676 340.973189 
L 448.229189 340.380973 
L 447.022703 339.788757 
L 445.816216 339.196541 
L 444.60973 338.604324 
L 443.403243 338.012108 
L 442.196757 337.419892 
L 440.99027 336.827676 
L 439.783784 336.235459 
L 438.577297 335.643243 
L 437.370811 335.051027 
L 436.164324 334.458811 
L 434.957838 333.866595 
L 433.751351 333.274378 
L 432.544865 332.682162 
L 431.338378 332.089946 
L 430.131892 331.49773 
L 428.925405 330.905514 
L 427.718919 330.313297 
L 426.512432 329.721081 
L 425.305946 329.128865 
L 424.099459 328.536649 
L 422.892973 327.944432 
L 421.686486 327.352216 
L 420.48 326.76 
L 419.273514 326.167784 
L 418.067027 325.575568 
L 416.860541 324.983351 
L 415.654054 324.391135 
L 414.447568 323.798919 
L 413.241081 323.206703 
L 412.034595 322.614486 
L 410.828108 322.02227 
L 409.621622 321.430054 
L 408.415135 320.837838 
L 407.208649 320.245622 
L 406.002162 319.653405 
L 404.795676 319.061189 
L 403.589189 318.468973 
L 402.382703 317.876757 
L 401.176216 317.284541 
L 399.96973 316.692324 
L 398.763243 316.100108 
L 397.556757 315.507892 
L 396.35027 314.915676 
L 395.143784 314.323459 
L 393.937297 313.731243 
L 392.730811 313.139027 
L 391.524324 312.546811 
L 390.317838 311.954595 
L 389.111351 311.362378 
L 387.904865 310.770162 
L 386.698378 310.177946 
L 385.491892 309.58573 
L 384.285405 308.993514 
L 383.078919 308.401297 
L 381.872432 307.809081 
L 380.665946 307.216865 
L 379.459459 306.624649 
L 378.252973 306.032432 
L 377.046486 305.440216 
L 375.84 304.848 
L 374.633514 304.255784 
L 373.427027 303.663568 
L 372.220541 303.071351 
L 371.014054 302.479135 
L 369.807568 301.886919 
L 368.601081 301.294703 
L 367.394595 300.702486 
L 366.188108 300.11027 
L 364.981622 299.518054 
L 363.775135 298.925838 
L 362.568649 298.333622 
L 361.362162 297.741405 
L 360.155676 297.149189 
L 358.949189 296.556973 
L 357.742703 295.964757 
L 356.536216 295.372541 
L 355.32973 294.780324 
L 354.123243 294.188108 
L 352.916757 293.595892 
L 351.71027 293.003676 
L 350.503784 292.411459 
L 349.297297 291.819243 
L 348.090811 291.227027 
L 346.884324 290.634811 
L 345.677838 290.042595 
L 344.471351 289.450378 
L 343.264865 288.858162 
L 342.058378 288.265946 
L 340.851892 287.67373 
L 339.645405 287.081514 
L 338.438919 286.489297 
L 337.232432 285.897081 
L 336.025946 285.304865 
L 334.819459 284.712649 
L 333.612973 284.120432 
L 332.406486 283.528216 
L 331.2 282.936 
L 329.993514 282.343784 
L 328.787027 281.751568 
L 327.580541 281.159351 
L 326.374054 280.567135 
L 325.167568 279.974919 
L 323.961081 279.382703 
L 322.754595 278.790486 
L 321.548108 278.19827 
L 320.341622 277.606054 
L 319.135135 277.013838 
L 317.928649 276.421622 
L 316.722162 275.829405 
L 315.515676 275.237189 
L 314.309189 274.644973 
L 313.102703 274.052757 
L 311.896216 273.460541 
L 310.68973 272.868324 
L 309.483243 272.276108 
L 308.276757 271.683892 
L 307.07027 271.091676 
L 305.863784 270.499459 
L 304.657297 269.907243 
L 303.450811 269.315027 
L 302.244324 268.722811 
L 301.037838 268.130595 
L 299.831351 267.538378 
L 298.624865 266.946162 
L 297.418378 266.353946 
L 296.211892 265.76173 
L 295.005405 265.169514 
L 293.798919 264.577297 
L 292.592432 263.985081 
L 291.385946 263.392865 
L 290.179459 262.800649 
L 288.972973 262.208432 
L 287.766486 261.616216 
L 286.56 261.024 
L 285.353514 260.431784 
L 284.147027 259.839568 
L 282.940541 259.247351 
L 281.734054 258.655135 
L 280.527568 258.062919 
L 279.321081 257.470703 
L 278.114595 256.878486 
L 276.908108 256.28627 
L 275.701622 255.694054 
L 274.495135 255.101838 
L 273.288649 254.509622 
L 272.082162 253.917405 
L 270.875676 253.325189 
L 269.669189 252.732973 
L 268.462703 252.140757 
L 267.256216 251.548541 
L 266.04973 250.956324 
L 264.843243 250.364108 
L 263.636757 249.771892 
L 262.43027 249.179676 
L 261.223784 248.09436 
L 260.017297 245.960799 
L 258.810811 243.827239 
L 257.604324 241.693678 
L 256.397838 239.560118 
L 255.191351 237.426557 
L 253.984865 235.292996 
L 252.778378 233.159436 
L 251.571892 231.025875 
L 250.365405 228.892315 
L 249.158919 226.758754 
L 247.952432 224.625194 
L 246.745946 222.491633 
L 245.539459 220.358073 
L 244.332973 218.224512 
L 243.126486 216.090952 
L 241.92 213.957391 
L 240.713514 211.823831 
L 239.507027 209.69027 
L 238.300541 207.55671 
L 237.094054 205.423149 
L 235.887568 203.289589 
L 234.681081 201.156028 
L 233.474595 199.022468 
L 232.268108 196.888907 
L 231.061622 194.755347 
L 229.855135 192.621786 
L 228.648649 190.488226 
L 227.442162 188.354665 
L 226.235676 186.221105 
L 225.029189 184.087544 
L 223.822703 181.953984 
L 222.616216 179.820423 
L 221.40973 177.686863 
L 220.203243 175.553302 
L 218.996757 173.419741 
L 217.79027 171.286181 
L 216.583784 169.15262 
L 215.377297 167.01906 
L 214.170811 164.885499 
L 212.964324 162.751939 
L 211.757838 160.618378 
L 210.551351 158.484818 
L 209.344865 156.351257 
L 208.138378 154.217697 
L 206.931892 152.084136 
L 205.725405 149.950576 
L 204.518919 147.817015 
L 203.312432 145.683455 
L 202.105946 143.549894 
L 200.899459 141.416334 
L 199.692973 139.282773 
L 198.486486 137.149213 
L 197.28 135.015652 
L 196.073514 132.882092 
L 194.867027 130.748531 
L 193.660541 128.614971 
L 192.454054 126.48141 
L 191.247568 124.34785 
L 190.041081 122.214289 
L 188.834595 120.080729 
L 187.628108 117.947168 
L 186.421622 115.813608 
L 185.215135 113.680047 
L 184.008649 111.546486 
L 182.802162 109.412926 
L 181.595676 107.279365 
L 180.389189 105.145805 
L 179.182703 103.012244 
L 177.976216 100.878684 
L 176.76973 98.745123 
L 175.563243 96.611563 
L 174.356757 94.478002 
L 173.15027 92.344442 
L 171.943784 90.210881 
L 170.737297 88.077321 
L 169.530811 85.94376 
L 168.324324 83.8102 
L 167.117838 81.676639 
L 165.911351 79.543079 
L 164.704865 77.409518 
L 163.498378 75.275958 
L 162.291892 73.142397 
L 161.085405 71.008837 
L 159.878919 68.875276 
L 158.672432 66.741716 
L 157.465946 64.608155 
L 156.259459 62.474595 
L 155.052973 60.341034 
L 153.846486 58.207474 
L 152.64 56.073913 
L 151.433514 53.940353 
L 150.227027 51.806792 
L 149.020541 49.673231 
L 147.814054 47.539671 
L 146.607568 45.40611 
L 145.401081 43.27255 
L 144.194595 41.138989 
L 142.988108 39.005429 
L 141.781622 36.871868 
L 140.575135 34.738308 
L 139.368649 32.604747 
L 138.162162 30.471187 
L 136.955676 28.337626 
L 135.749189 26.204066 
L 134.542703 24.070505 
L 133.336216 21.936945 
L 132.12973 19.803384 
L 130.923243 17.669824 
L 129.716757 15.536263 
L 128.51027 13.402703 
L 127.303784 11.269142 
L 126.097297 9.135582 
L 124.890811 7.002021 
L 123.684324 4.868461 
L 122.477838 2.7349 
L 121.271351 0.60134 
L 120.064865 -1.532221 
L 118.858378 -3.665781 
L 117.651892 -5.799342 
L 116.445405 -7.932902 
L 115.238919 -10.066463 
L 114.032432 -12.200024 
L 112.825946 -14.333584 
L 111.619459 -16.467145 
L 110.412973 -18.600705 
L 109.206486 -20.734266 
L 108 -22.867826 
L 106.793514 -25.001387 
L 105.587027 -27.134947 
L 104.380541 -29.268508 
L 103.174054 -31.402068 
L 101.967568 -33.535629 
L 100.761081 -35.669189 
L 99.554595 -37.80275 
L 98.348108 -39.93631 
L 97.141622 -42.069871 
L 95.935135 -44.203431 
L 94.728649 -46.336992 
L 93.522162 -48.470552 
L 92.315676 -50.604113 
L 91.109189 -52.737673 
L 89.902703 -54.871234 
L 88.696216 -57.004794 
L 87.48973 -59.138355 
L 86.283243 -61.271915 
L 85.076757 -63.405476 
L 83.87027 -65.539036 
L 82.663784 -67.672597 
L 81.457297 -69.806157 
L 80.250811 -71.939718 
L 79.044324 -74.073278 
L 77.837838 -76.206839 
L 76.631351 -78.3404 
L 75.424865 -80.47396 
L 74.218378 -82.607521 
L 73.011892 -84.741081 
L 71.805405 -86.874642 
L 70.598919 -89.008202 
L 69.392432 -91.141763 
L 68.185946 -93.275323 
L 66.979459 -95.408884 
L 65.772973 -97.542444 
L 64.566486 -99.676005 
L 63.36 -101.809565 
L 62.153514 -103.943126 
L 60.947027 -106.076686 
L 59.740541 -108.210247 
L 58.534054 -110.343807 
L 57.327568 -112.477368 
L 56.121081 -114.610928 
L 54.914595 -116.744489 
L 53.708108 -118.878049 
L 52.501622 -121.01161 
L 51.295135 -123.14517 
L 50.088649 -125.278731 
L 48.882162 -127.412291 
L 47.675676 -129.545852 
L 46.469189 -131.679412 
L 45.262703 -133.812973 
L 44.056216 -135.946533 
L 42.84973 -138.080094 
L 41.643243 -140.213655 
L 40.436757 -142.347215 
L 39.23027 -144.480776 
L 38.023784 -146.614336 
L 36.817297 -148.747897 
L 35.610811 -150.881457 
L 34.404324 -153.015018 
L 33.197838 -155.148578 
L 31.991351 -157.282139 
L 30.784865 -159.415699 
L 29.578378 -161.54926 
L 28.371892 -163.68282 
L 27.165405 -165.816381 
L 25.958919 -167.949941 
L 24.752432 -170.083502 
L 23.545946 -172.217062 
L 22.339459 -174.350623 
L 21.132973 -176.484183 
L 19.926486 -178.617744 
L 18.72 -180.751304 
L 17.513514 -182.884865 
L 16.307027 -185.018425 
L 15.100541 -187.151986 
L 13.894054 -189.285546 
L 12.687568 -191.419107 
L 11.481081 -193.552667 
L 10.274595 -195.686228 
L 9.068108 -197.819788 
L 7.861622 -199.953349 
L 6.655135 -202.08691 
L 5.448649 -204.22047 
L 4.242162 -206.354031 
L 3.035676 -208.487591 
L 1.829189 -210.621152 
L 0.622703 -212.754712 
L -0.583784 -214.888273 
L -1.79027 -217.021833 
L -2.996757 -219.155394 
L -4.203243 -221.288954 
L -5.40973 -223.422515 
L -6.616216 -225.556075 
L -7.822703 -227.689636 
L -9.029189 -229.823196 
L -10.235676 -231.956757 
L -11.442162 -234.090317 
L -12.648649 -236.223878 
L -13.855135 -238.357438 
L -15.061622 -240.490999 
L -16.268108 -242.624559 
L -17.474595 -244.75812 
L -18.681081 -246.89168 
L -19.887568 -249.025241 
L -21.094054 -251.158801 
L -22.300541 -253.292362 
L -23.507027 -255.425922 
L -24.713514 -257.559483 
L -25.92 -259.693043 
L -27.126486 -261.826604 
L -28.332973 -263.960165 
L -29.539459 -266.093725 
L -30.745946 -268.227286 
L -31.952432 -270.360846 
L -33.158919 -272.494407 
L -34.365405 -274.627967 
L -35.571892 -276.761528 
L -36.778378 -278.895088 
L -37.984865 -281.028649 
L -39.191351 -283.162209 
L -40.397838 -285.29577 
L -41.604324 -287.42933 
L -42.810811 -289.562891 
L -44.017297 -291.696451 
L -45.223784 -293.830012 
L -46.43027 -295.963572 
L -47.636757 -298.097133 
L -48.843243 -300.230693 
L -50.04973 -302.364254 
L -51.256216 -304.497814 
L -52.462703 -306.631375 
L -53.669189 -308.764935 
L -54.875676 -310.898496 
L -56.082162 -313.032056 
L -57.288649 -315.165617 
L -58.495135 -317.299177 
L -59.701622 -319.432738 
L -60.908108 -321.566298 
L -62.114595 -323.699859 
L -63.321081 -325.83342 
L -64.527568 -327.96698 
L -65.734054 -330.100541 
L -66.940541 -332.234101 
L -68.147027 -334.367662 
L -69.353514 -336.501222 
L -70.56 -338.634783 
L -71.766486 -340.768343 
L -72.972973 -342.901904 
L -74.179459 -345.035464 
L -75.385946 -347.169025 
L -76.592432 -349.302585 
L -77.798919 -351.436146 
L -79.005405 -353.569706 
L -80.211892 -355.703267 
L -81.418378 -357.836827 
L -82.624865 -359.970388 
L -83.831351 -362.103948 
L -85.037838 -364.237509 
L -86.244324 -366.371069 
L -87.450811 -368.50463 
L -88.657297 -370.63819 
L -89.863784 -372.771751 
L -91.07027 -374.905311 
L -92.276757 -377.038872 
L -93.483243 -379.172432 
L -94.68973 -381.305993 
L -95.896216 -383.439553 
L -97.102703 -385.573114 
L -98.309189 -387.706675 
L -99.515676 -389.840235 
L -100.722162 -391.973796 
L -101.928649 -394.107356 
L -103.135135 -396.240917 
L -104.341622 -398.374477 
L -105.548108 -400.508038 
L -106.754595 -402.641598 
L -107.961081 -404.775159 
L -109.167568 -406.908719 
L -110.374054 -409.04228 
L -111.580541 -411.17584 
L -112.787027 -413.309401 
L -113.993514 -415.442961 
L -115.2 -417.576522 
L -116.406486 -419.710082 
L -117.612973 -421.843643 
L -118.819459 -423.977203 
L -120.025946 -426.110764 
L -121.232432 -428.244324 
L -122.438919 -430.377885 
L -123.645405 -432.511445 
L -124.851892 -434.645006 
L -126.058378 -436.778566 
L -127.264865 -438.912127 
L -128.471351 -441.045687 
L -129.677838 -443.179248 
L -130.884324 -445.312808 
L -132.090811 -447.446369 
L -133.297297 -449.579929 
L -134.503784 -451.71349 
L -135.71027 -453.847051 
L -136.916757 -455.980611 
L -138.123243 -458.114172 
L -139.32973 -460.247732 
L -140.536216 -462.381293 
L -141.742703 -464.514853 
L -142.949189 -466.648414 
L -144.155676 -468.781974 
L -145.362162 -470.915535 
L -146.568649 -473.049095 
L -147.775135 -475.182656 
L -148.981622 -477.316216 
L -150.188108 -479.449777 
L -151.394595 -481.583337 
L -152.601081 -483.716898 
L -153.807568 -485.850458 
L -155.014054 -487.984019 
L -156.220541 -490.117579 
L -157.427027 -492.25114 
L -158.633514 -494.3847 
L -159.84 -496.518261 
L -161.046486 -498.651821 
L -162.252973 -500.785382 
L -163.459459 -502.918942 
L -164.665946 -505.052503 
L -165.872432 -507.186063 
L -167.078919 -509.319624 
L -168.285405 -511.453184 
L -169.491892 -513.586745 
L -170.698378 -515.720306 
L -171.904865 -517.853866 
L -173.111351 -519.987427 
L -174.317838 -522.120987 
L -175.524324 -524.254548 
L -176.730811 -526.388108 
L -177.937297 -528.521669 
L -179.143784 -530.655229 
L -180.35027 -532.78879 
L -181.556757 -534.92235 
L -182.763243 -537.055911 
L -183.96973 -539.189471 
L -185.176216 -541.323032 
L -186.382703 -543.456592 
L -187.589189 -545.590153 
L -188.795676 -547.723713 
L -190.002162 -549.857274 
L -191.208649 -551.990834 
L -192.415135 -554.124395 
L -193.621622 -556.257955 
L -194.828108 -558.391516 
L -196.034595 -560.525076 
L -197.241081 -562.658637 
L -198.447568 -564.792197 
L -199.654054 -566.925758 
L -200.860541 -569.059318 
L -202.067027 -571.192879 
L -203.273514 -573.326439 
L -204.48 -575.46 
L -205.686486 -577.593561 
L -206.892973 -579.727121 
L -208.099459 -581.860682 
L -209.305946 -583.994242 
L -210.512432 -586.127803 
L -211.718919 -588.261363 
L -212.925405 -590.394924 
L -214.131892 -592.528484 
L -215.338378 -594.662045 
L -216.544865 -596.795605 
L -217.751351 -598.929166 
L -218.957838 -601.062726 
L -220.164324 -603.196287 
L -221.370811 -605.329847 
L -222.577297 -607.463408 
L -223.783784 -609.596968 
L -224.99027 -611.730529 
L -226.196757 -613.864089 
L -227.403243 -615.99765 
L -228.60973 -618.13121 
L -229.816216 -620.264771 
L -231.022703 -622.398331 
L -232.229189 -624.531892 
L -233.435676 -626.665452 
L -234.642162 -628.799013 
L -235.848649 -630.932573 
L -237.055135 -633.066134 
L -238.261622 -635.199694 
L -239.468108 -637.333255 
L -240.674595 -639.466816 
L -241.881081 -641.600376 
L -243.087568 -643.733937 
L -244.294054 -645.867497 
L -245.500541 -648.001058 
L -246.707027 -650.134618 
L -247.913514 -652.268179 
L -249.12 -654.401739 
L -250.326486 -656.5353 
L -251.532973 -658.66886 
L -252.739459 -660.802421 
L -253.945946 -662.935981 
L -255.152432 -665.069542 
L -256.358919 -667.203102 
L -257.565405 -669.336663 
L -258.771892 -671.470223 
L -259.978378 -673.603784 
L -261.184865 -675.737344 
L -262.391351 -677.870905 
L -263.597838 -680.004465 
L -264.804324 -682.138026 
L -266.010811 -684.271586 
L -267.217297 -686.405147 
L -268.423784 -688.538707 
L -269.63027 -690.672268 
L -270.836757 -692.805828 
L -272.043243 -694.939389 
L -273.24973 -697.072949 
L -274.456216 -699.20651 
L -275.662703 -701.340071 
L -276.869189 -703.473631 
L -278.075676 -705.607192 
L -279.282162 -707.740752 
L -280.488649 -709.874313 
L -281.695135 -712.007873 
L -282.901622 -714.141434 
L -284.108108 -716.274994 
L -285.314595 -718.408555 
L -286.521081 -720.542115 
L -287.727568 -722.675676 
L -288.934054 -724.809236 
L -290.140541 -726.942797 
L -291.347027 -729.076357 
L -292.553514 -731.209918 
L -293.76 -733.343478 
L -294.966486 -735.477039 
L -296.172973 -737.610599 
L -297.379459 -739.74416 
L -298.585946 -741.87772 
L -299.792432 -744.011281 
L -300.998919 -746.144841 
L -302.205405 -748.278402 
L -303.411892 -750.411962 
L -304.618378 -752.545523 
L -305.824865 -754.679083 
L -307.031351 -756.812644 
L -308.237838 -758.946204 
L -309.444324 -761.079765 
L -310.650811 -763.213325 
L -311.857297 -765.346886 
L -313.063784 -767.480447 
L -314.27027 -769.614007 
L -315.476757 -771.747568 
L -316.683243 -773.881128 
L -317.88973 -776.014689 
L -319.096216 -778.148249 
L -320.302703 -780.28181 
L -321.509189 -782.41537 
L -322.715676 -784.548931 
L -323.922162 -786.682491 
L -325.128649 -788.816052 
L -326.335135 -790.949612 
L -327.541622 -793.083173 
L -328.748108 -795.216733 
L -329.954595 -797.350294 
L -331.161081 -799.483854 
L -332.367568 -801.617415 
L -333.574054 -803.750975 
L -334.780541 -805.884536 
L -335.987027 -808.018096 
L -337.193514 -810.151657 
L -338.4 -812.285217 
L -339.606486 -814.418778 
L -340.812973 -816.552338 
L -342.019459 -818.685899 
L -343.225946 -820.819459 
L -344.432432 -822.95302 
L -345.638919 -825.08658 
L -346.845405 -827.220141 
L -348.051892 -829.353702 
L -349.258378 -831.487262 
L -350.464865 -833.620823 
L -351.671351 -835.754383 
L -352.877838 -837.887944 
L -354.084324 -840.021504 
L -355.290811 -842.155065 
L -356.497297 -844.288625 
L -357.703784 -846.422186 
L -358.91027 -848.555746 
L -360.116757 -850.689307 
L -361.323243 -852.822867 
L -362.52973 -854.956428 
L -363.736216 -857.089988 
L -364.942703 -859.223549 
L -366.149189 -861.357109 
L -367.355676 -863.49067 
L -368.562162 -865.62423 
L -369.768649 -867.757791 
L -370.975135 -869.891351 
L -372.181622 -872.024912 
L -373.388108 -874.158472 
L -374.594595 -876.292033 
L -375.801081 -878.425593 
L -377.007568 -880.559154 
L -378.214054 -882.692714 
L -379.420541 -884.826275 
L -380.627027 -886.959835 
L -381.833514 -889.093396 
L -383.04 -891.226957 
L -384.246486 -893.360517 
L -385.452973 -895.494078 
L -386.659459 -897.627638 
L -387.865946 -899.761199 
L -389.072432 -901.894759 
L -390.278919 -904.02832 
L -391.485405 -906.16188 
L -392.691892 -908.295441 
L -393.898378 -910.429001 
L -395.104865 -912.562562 
L -396.311351 -914.696122 
L -397.517838 -916.829683 
L -398.724324 -918.963243 
L -399.930811 -921.096804 
L -401.137297 -923.230364 
L -402.343784 -925.363925 
L -403.55027 -927.497485 
L -404.756757 -929.631046 
L -405.963243 -931.764606 
L -407.16973 -933.898167 
L -408.376216 -936.031727 
L -409.582703 -938.165288 
L -410.789189 -940.298848 
L -411.995676 -942.432409 
L -413.202162 -944.565969 
L -414.408649 -946.69953 
L -415.615135 -948.83309 
L -416.821622 -950.966651 
L -418.028108 -953.100212 
L -419.234595 -955.233772 
L -420.441081 -957.367333 
L -421.647568 -959.500893 
L -422.854054 -961.634454 
L -424.060541 -963.768014 
L -425.267027 -965.901575 
L -426.473514 -968.035135 
L -427.68 -970.168696 
z
" clip-path="url(#pd3f02dede5)" style="fill: #d3d3d3; fill-opacity: 0.5; stroke: #d3d3d3; stroke-opacity: 0.5; stroke-width: 0.5"/>
   </g>
   <g id="line2d_31">
    <path d="M 120.365825 -1 
L 610.071783 865 
L 610.071783 865 
" clip-path="url(#pd3f02dede5)" style="fill: none; stroke-dasharray: 9.6,2.4,1.5,2.4; stroke-dashoffset: 0; stroke: #008000; stroke-width: 1.5"/>
   </g>
   <g id="line2d_32">
    <path d="M -1 119.872237 
L 777.6 502.056 
L 777.6 502.056 
" clip-path="url(#pd3f02dede5)" style="fill: none; stroke: #bf00bf; stroke-width: 1.5; stroke-linecap: square"/>
   </g>
   <g id="line2d_33">
    <path d="M -1 791.093385 
L 777.6 418.285301 
L 777.6 418.285301 
" clip-path="url(#pd3f02dede5)" style="fill: none; stroke-dasharray: 5.55,2.4; stroke-dashoffset: 0; stroke: #bfbf00; stroke-width: 1.5"/>
   </g>
   <g id="line2d_34">
    <path d="M 261.609757 248.776919 
" clip-path="url(#pd3f02dede5)" style="fill: none; stroke: #bf00bf; stroke-width: 1.5; stroke-linecap: square"/>
    <defs>
     <path id="mbb6e4388fc" d="M 0 3 
C 0.795609 3 1.55874 2.683901 2.12132 2.12132 
C 2.683901 1.55874 3 0.795609 3 0 
C 3 -0.795609 2.683901 -1.55874 2.12132 -2.12132 
C 1.55874 -2.683901 0.795609 -3 0 -3 
C -0.795609 -3 -1.55874 -2.683901 -2.12132 -2.12132 
C -2.683901 -1.55874 -3 -0.795609 -3 0 
C -3 0.795609 -2.683901 1.55874 -2.12132 2.12132 
C -1.55874 2.683901 -0.795609 3 0 3 
z
" style="stroke: #bf00bf"/>
    </defs>
    <g clip-path="url(#pd3f02dede5)">
     <use xlink:href="#mbb6e4388fc" x="261.609757" y="248.776919" style="fill: #bf00bf; stroke: #bf00bf"/>
    </g>
   </g>
   <g id="line2d_35">
    <path d="M 691.209841 459.650508 
" clip-path="url(#pd3f02dede5)" style="fill: none; stroke: #ff0000; stroke-width: 1.5; stroke-linecap: square"/>
    <defs>
     <path id="m14f5156492" d="M 0 3 
C 0.795609 3 1.55874 2.683901 2.12132 2.12132 
C 2.683901 1.55874 3 0.795609 3 0 
C 3 -0.795609 2.683901 -1.55874 2.12132 -2.12132 
C 1.55874 -2.683901 0.795609 -3 0 -3 
C -0.795609 -3 -1.55874 -2.683901 -2.12132 -2.12132 
C -2.683901 -1.55874 -3 -0.795609 -3 0 
C -3 0.795609 -2.683901 1.55874 -2.12132 2.12132 
C -1.55874 2.683901 -0.795609 3 0 3 
z
" style="stroke: #ff0000"/>
    </defs>
    <g clip-path="url(#pd3f02dede5)">
     <use xlink:href="#m14f5156492" x="691.209841" y="459.650508" style="fill: #ff0000; stroke: #ff0000"/>
    </g>
   </g>
   <g id="line2d_36">
    <path d="M 446.982274 576.591185 
" clip-path="url(#pd3f02dede5)" style="fill: none; stroke: #0000ff; stroke-width: 1.5; stroke-linecap: square"/>
    <defs>
     <path id="m7d85d443b4" d="M 0 3 
C 0.795609 3 1.55874 2.683901 2.12132 2.12132 
C 2.683901 1.55874 3 0.795609 3 0 
C 3 -0.795609 2.683901 -1.55874 2.12132 -2.12132 
C 1.55874 -2.683901 0.795609 -3 0 -3 
C -0.795609 -3 -1.55874 -2.683901 -2.12132 -2.12132 
C -2.683901 -1.55874 -3 -0.795609 -3 0 
C -3 0.795609 -2.683901 1.55874 -2.12132 2.12132 
C -1.55874 2.683901 -0.795609 3 0 3 
z
" style="stroke: #0000ff"/>
    </defs>
    <g clip-path="url(#pd3f02dede5)">
     <use xlink:href="#m7d85d443b4" x="446.982274" y="576.591185" style="fill: #0000ff; stroke: #0000ff"/>
    </g>
   </g>
   <g id="patch_3">
    <path d="M 108 768.96 
L 108 103.68 
" style="fill: none; stroke: #ffffff; stroke-linejoin: miter; stroke-linecap: square"/>
   </g>
   <g id="patch_4">
    <path d="M 777.6 768.96 
L 777.6 103.68 
" style="fill: none; stroke: #ffffff; stroke-linejoin: miter; stroke-linecap: square"/>
   </g>
   <g id="patch_5">
    <path d="M 108 768.96 
L 777.6 768.96 
" style="fill: none; stroke: #ffffff; stroke-linejoin: miter; stroke-linecap: square"/>
   </g>
   <g id="patch_6">
    <path d="M 108 103.68 
L 777.6 103.68 
" style="fill: none; stroke: #ffffff; stroke-linejoin: miter; stroke-linecap: square"/>
   </g>
   <g id="text_18">
    <!-- $13.1x_1 + 9.2x_2 = 173$ -->
    <g transform="translate(208.44 120.312) rotate(60.585545) scale(0.1 -0.1)">
     <defs>
      <path id="DejaVuSans-33" d="M 2597 2516 
Q 3050 2419 3304 2112 
Q 3559 1806 3559 1356 
Q 3559 666 3084 287 
Q 2609 -91 1734 -91 
Q 1441 -91 1130 -33 
Q 819 25 488 141 
L 488 750 
Q 750 597 1062 519 
Q 1375 441 1716 441 
Q 2309 441 2620 675 
Q 2931 909 2931 1356 
Q 2931 1769 2642 2001 
Q 2353 2234 1838 2234 
L 1294 2234 
L 1294 2753 
L 1863 2753 
Q 2328 2753 2575 2939 
Q 2822 3125 2822 3475 
Q 2822 3834 2567 4026 
Q 2313 4219 1838 4219 
Q 1578 4219 1281 4162 
Q 984 4106 628 3988 
L 628 4550 
Q 988 4650 1302 4700 
Q 1616 4750 1894 4750 
Q 2613 4750 3031 4423 
Q 3450 4097 3450 3541 
Q 3450 3153 3228 2886 
Q 3006 2619 2597 2516 
z
" transform="scale(0.015625)"/>
      <path id="DejaVuSans-2b" d="M 2944 4013 
L 2944 2272 
L 4684 2272 
L 4684 1741 
L 2944 1741 
L 2944 0 
L 2419 0 
L 2419 1741 
L 678 1741 
L 678 2272 
L 2419 2272 
L 2419 4013 
L 2944 4013 
z
" transform="scale(0.015625)"/>
      <path id="DejaVuSans-39" d="M 703 97 
L 703 672 
Q 941 559 1184 500 
Q 1428 441 1663 441 
Q 2288 441 2617 861 
Q 2947 1281 2994 2138 
Q 2813 1869 2534 1725 
Q 2256 1581 1919 1581 
Q 1219 1581 811 2004 
Q 403 2428 403 3163 
Q 403 3881 828 4315 
Q 1253 4750 1959 4750 
Q 2769 4750 3195 4129 
Q 3622 3509 3622 2328 
Q 3622 1225 3098 567 
Q 2575 -91 1691 -91 
Q 1453 -91 1209 -44 
Q 966 3 703 97 
z
M 1959 2075 
Q 2384 2075 2632 2365 
Q 2881 2656 2881 3163 
Q 2881 3666 2632 3958 
Q 2384 4250 1959 4250 
Q 1534 4250 1286 3958 
Q 1038 3666 1038 3163 
Q 1038 2656 1286 2365 
Q 1534 2075 1959 2075 
z
" transform="scale(0.015625)"/>
      <path id="DejaVuSans-3d" d="M 678 2906 
L 4684 2906 
L 4684 2381 
L 678 2381 
L 678 2906 
z
M 678 1631 
L 4684 1631 
L 4684 1100 
L 678 1100 
L 678 1631 
z
" transform="scale(0.015625)"/>
     </defs>
     <use xlink:href="#DejaVuSans-31" transform="translate(0 0.78125)"/>
     <use xlink:href="#DejaVuSans-33" transform="translate(63.623047 0.78125)"/>
     <use xlink:href="#DejaVuSans-2e" transform="translate(127.246094 0.78125)"/>
     <use xlink:href="#DejaVuSans-31" transform="translate(159.033203 0.78125)"/>
     <use xlink:href="#DejaVuSans-Oblique-78" transform="translate(222.65625 0.78125)"/>
     <use xlink:href="#DejaVuSans-31" transform="translate(281.835938 -15.625) scale(0.7)"/>
     <use xlink:href="#DejaVuSans-2b" transform="translate(348.588867 0.78125)"/>
     <use xlink:href="#DejaVuSans-39" transform="translate(451.860352 0.78125)"/>
     <use xlink:href="#DejaVuSans-2e" transform="translate(515.483398 0.78125)"/>
     <use xlink:href="#DejaVuSans-32" transform="translate(541.770508 0.78125)"/>
     <use xlink:href="#DejaVuSans-Oblique-78" transform="translate(605.393555 0.78125)"/>
     <use xlink:href="#DejaVuSans-32" transform="translate(664.573242 -15.625) scale(0.7)"/>
     <use xlink:href="#DejaVuSans-3d" transform="translate(731.326172 0.78125)"/>
     <use xlink:href="#DejaVuSans-31" transform="translate(834.597656 0.78125)"/>
     <use xlink:href="#DejaVuSans-37" transform="translate(898.220703 0.78125)"/>
     <use xlink:href="#DejaVuSans-33" transform="translate(961.84375 0.78125)"/>
    </g>
   </g>
   <g id="text_19">
    <!-- $8.3x_1 + 21x_2 = 271$ -->
    <g transform="translate(349.056 270) rotate(26.646331) scale(0.1 -0.1)">
     <defs>
      <path id="DejaVuSans-38" d="M 2034 2216 
Q 1584 2216 1326 1975 
Q 1069 1734 1069 1313 
Q 1069 891 1326 650 
Q 1584 409 2034 409 
Q 2484 409 2743 651 
Q 3003 894 3003 1313 
Q 3003 1734 2745 1975 
Q 2488 2216 2034 2216 
z
M 1403 2484 
Q 997 2584 770 2862 
Q 544 3141 544 3541 
Q 544 4100 942 4425 
Q 1341 4750 2034 4750 
Q 2731 4750 3128 4425 
Q 3525 4100 3525 3541 
Q 3525 3141 3298 2862 
Q 3072 2584 2669 2484 
Q 3125 2378 3379 2068 
Q 3634 1759 3634 1313 
Q 3634 634 3220 271 
Q 2806 -91 2034 -91 
Q 1263 -91 848 271 
Q 434 634 434 1313 
Q 434 1759 690 2068 
Q 947 2378 1403 2484 
z
M 1172 3481 
Q 1172 3119 1398 2916 
Q 1625 2713 2034 2713 
Q 2441 2713 2670 2916 
Q 2900 3119 2900 3481 
Q 2900 3844 2670 4047 
Q 2441 4250 2034 4250 
Q 1625 4250 1398 4047 
Q 1172 3844 1172 3481 
z
" transform="scale(0.015625)"/>
     </defs>
     <use xlink:href="#DejaVuSans-38" transform="translate(0 0.78125)"/>
     <use xlink:href="#DejaVuSans-2e" transform="translate(63.623047 0.78125)"/>
     <use xlink:href="#DejaVuSans-33" transform="translate(95.410156 0.78125)"/>
     <use xlink:href="#DejaVuSans-Oblique-78" transform="translate(159.033203 0.78125)"/>
     <use xlink:href="#DejaVuSans-31" transform="translate(218.212891 -15.625) scale(0.7)"/>
     <use xlink:href="#DejaVuSans-2b" transform="translate(284.96582 0.78125)"/>
     <use xlink:href="#DejaVuSans-32" transform="translate(388.237305 0.78125)"/>
     <use xlink:href="#DejaVuSans-31" transform="translate(451.860352 0.78125)"/>
     <use xlink:href="#DejaVuSans-Oblique-78" transform="translate(515.483398 0.78125)"/>
     <use xlink:href="#DejaVuSans-32" transform="translate(574.663086 -15.625) scale(0.7)"/>
     <use xlink:href="#DejaVuSans-3d" transform="translate(641.416016 0.78125)"/>
     <use xlink:href="#DejaVuSans-32" transform="translate(744.6875 0.78125)"/>
     <use xlink:href="#DejaVuSans-37" transform="translate(808.310547 0.78125)"/>
     <use xlink:href="#DejaVuSans-31" transform="translate(871.933594 0.78125)"/>
    </g>
   </g>
   <g id="text_20">
    <!-- $3.2x_1 - 8.3x_2 = 34$ -->
    <g transform="translate(322.272 627.588) rotate(-27.796868) scale(0.1 -0.1)">
     <defs>
      <path id="DejaVuSans-34" d="M 2419 4116 
L 825 1625 
L 2419 1625 
L 2419 4116 
z
M 2253 4666 
L 3047 4666 
L 3047 1625 
L 3713 1625 
L 3713 1100 
L 3047 1100 
L 3047 0 
L 2419 0 
L 2419 1100 
L 313 1100 
L 313 1709 
L 2253 4666 
z
" transform="scale(0.015625)"/>
     </defs>
     <use xlink:href="#DejaVuSans-33" transform="translate(0 0.78125)"/>
     <use xlink:href="#DejaVuSans-2e" transform="translate(63.623047 0.78125)"/>
     <use xlink:href="#DejaVuSans-32" transform="translate(89.910156 0.78125)"/>
     <use xlink:href="#DejaVuSans-Oblique-78" transform="translate(153.533203 0.78125)"/>
     <use xlink:href="#DejaVuSans-31" transform="translate(212.712891 -15.625) scale(0.7)"/>
     <use xlink:href="#DejaVuSans-2212" transform="translate(279.46582 0.78125)"/>
     <use xlink:href="#DejaVuSans-38" transform="translate(382.737305 0.78125)"/>
     <use xlink:href="#DejaVuSans-2e" transform="translate(446.360352 0.78125)"/>
     <use xlink:href="#DejaVuSans-33" transform="translate(478.147461 0.78125)"/>
     <use xlink:href="#DejaVuSans-Oblique-78" transform="translate(541.770508 0.78125)"/>
     <use xlink:href="#DejaVuSans-32" transform="translate(600.950195 -15.625) scale(0.7)"/>
     <use xlink:href="#DejaVuSans-3d" transform="translate(667.703125 0.78125)"/>
     <use xlink:href="#DejaVuSans-33" transform="translate(770.974609 0.78125)"/>
     <use xlink:href="#DejaVuSans-34" transform="translate(834.597656 0.78125)"/>
    </g>
   </g>
   <g id="patch_7">
    <path d="M 327.086034 208.596044 
Q 295.201118 228.162884 263.792657 247.437337 
" style="fill: none; stroke: #eeeeee; stroke-width: 0.5; stroke-linecap: round"/>
    <path d="M 268.24797 247.049807 
L 263.792657 247.437337 
L 266.15582 243.640568 
" style="fill: none; stroke: #eeeeee; stroke-width: 0.5; stroke-linecap: round"/>
   </g>
   <g id="text_21">
    <!-- The intersection point of -->
    <g transform="translate(287.760688 192.274187) scale(0.1 -0.1)">
     <defs>
      <path id="DejaVuSans-54" d="M -19 4666 
L 3928 4666 
L 3928 4134 
L 2272 4134 
L 2272 0 
L 1638 0 
L 1638 4134 
L -19 4134 
L -19 4666 
z
" transform="scale(0.015625)"/>
      <path id="DejaVuSans-68" d="M 3513 2113 
L 3513 0 
L 2938 0 
L 2938 2094 
Q 2938 2591 2744 2837 
Q 2550 3084 2163 3084 
Q 1697 3084 1428 2787 
Q 1159 2491 1159 1978 
L 1159 0 
L 581 0 
L 581 4863 
L 1159 4863 
L 1159 2956 
Q 1366 3272 1645 3428 
Q 1925 3584 2291 3584 
Q 2894 3584 3203 3211 
Q 3513 2838 3513 2113 
z
" transform="scale(0.015625)"/>
      <path id="DejaVuSans-65" d="M 3597 1894 
L 3597 1613 
L 953 1613 
Q 991 1019 1311 708 
Q 1631 397 2203 397 
Q 2534 397 2845 478 
Q 3156 559 3463 722 
L 3463 178 
Q 3153 47 2828 -22 
Q 2503 -91 2169 -91 
Q 1331 -91 842 396 
Q 353 884 353 1716 
Q 353 2575 817 3079 
Q 1281 3584 2069 3584 
Q 2775 3584 3186 3129 
Q 3597 2675 3597 1894 
z
M 3022 2063 
Q 3016 2534 2758 2815 
Q 2500 3097 2075 3097 
Q 1594 3097 1305 2825 
Q 1016 2553 972 2059 
L 3022 2063 
z
" transform="scale(0.015625)"/>
      <path id="DejaVuSans-20" transform="scale(0.015625)"/>
      <path id="DejaVuSans-69" d="M 603 3500 
L 1178 3500 
L 1178 0 
L 603 0 
L 603 3500 
z
M 603 4863 
L 1178 4863 
L 1178 4134 
L 603 4134 
L 603 4863 
z
" transform="scale(0.015625)"/>
      <path id="DejaVuSans-6e" d="M 3513 2113 
L 3513 0 
L 2938 0 
L 2938 2094 
Q 2938 2591 2744 2837 
Q 2550 3084 2163 3084 
Q 1697 3084 1428 2787 
Q 1159 2491 1159 1978 
L 1159 0 
L 581 0 
L 581 3500 
L 1159 3500 
L 1159 2956 
Q 1366 3272 1645 3428 
Q 1925 3584 2291 3584 
Q 2894 3584 3203 3211 
Q 3513 2838 3513 2113 
z
" transform="scale(0.015625)"/>
      <path id="DejaVuSans-74" d="M 1172 4494 
L 1172 3500 
L 2356 3500 
L 2356 3053 
L 1172 3053 
L 1172 1153 
Q 1172 725 1289 603 
Q 1406 481 1766 481 
L 2356 481 
L 2356 0 
L 1766 0 
Q 1100 0 847 248 
Q 594 497 594 1153 
L 594 3053 
L 172 3053 
L 172 3500 
L 594 3500 
L 594 4494 
L 1172 4494 
z
" transform="scale(0.015625)"/>
      <path id="DejaVuSans-72" d="M 2631 2963 
Q 2534 3019 2420 3045 
Q 2306 3072 2169 3072 
Q 1681 3072 1420 2755 
Q 1159 2438 1159 1844 
L 1159 0 
L 581 0 
L 581 3500 
L 1159 3500 
L 1159 2956 
Q 1341 3275 1631 3429 
Q 1922 3584 2338 3584 
Q 2397 3584 2469 3576 
Q 2541 3569 2628 3553 
L 2631 2963 
z
" transform="scale(0.015625)"/>
      <path id="DejaVuSans-73" d="M 2834 3397 
L 2834 2853 
Q 2591 2978 2328 3040 
Q 2066 3103 1784 3103 
Q 1356 3103 1142 2972 
Q 928 2841 928 2578 
Q 928 2378 1081 2264 
Q 1234 2150 1697 2047 
L 1894 2003 
Q 2506 1872 2764 1633 
Q 3022 1394 3022 966 
Q 3022 478 2636 193 
Q 2250 -91 1575 -91 
Q 1294 -91 989 -36 
Q 684 19 347 128 
L 347 722 
Q 666 556 975 473 
Q 1284 391 1588 391 
Q 1994 391 2212 530 
Q 2431 669 2431 922 
Q 2431 1156 2273 1281 
Q 2116 1406 1581 1522 
L 1381 1569 
Q 847 1681 609 1914 
Q 372 2147 372 2553 
Q 372 3047 722 3315 
Q 1072 3584 1716 3584 
Q 2034 3584 2315 3537 
Q 2597 3491 2834 3397 
z
" transform="scale(0.015625)"/>
      <path id="DejaVuSans-63" d="M 3122 3366 
L 3122 2828 
Q 2878 2963 2633 3030 
Q 2388 3097 2138 3097 
Q 1578 3097 1268 2742 
Q 959 2388 959 1747 
Q 959 1106 1268 751 
Q 1578 397 2138 397 
Q 2388 397 2633 464 
Q 2878 531 3122 666 
L 3122 134 
Q 2881 22 2623 -34 
Q 2366 -91 2075 -91 
Q 1284 -91 818 406 
Q 353 903 353 1747 
Q 353 2603 823 3093 
Q 1294 3584 2113 3584 
Q 2378 3584 2631 3529 
Q 2884 3475 3122 3366 
z
" transform="scale(0.015625)"/>
      <path id="DejaVuSans-6f" d="M 1959 3097 
Q 1497 3097 1228 2736 
Q 959 2375 959 1747 
Q 959 1119 1226 758 
Q 1494 397 1959 397 
Q 2419 397 2687 759 
Q 2956 1122 2956 1747 
Q 2956 2369 2687 2733 
Q 2419 3097 1959 3097 
z
M 1959 3584 
Q 2709 3584 3137 3096 
Q 3566 2609 3566 1747 
Q 3566 888 3137 398 
Q 2709 -91 1959 -91 
Q 1206 -91 779 398 
Q 353 888 353 1747 
Q 353 2609 779 3096 
Q 1206 3584 1959 3584 
z
" transform="scale(0.015625)"/>
      <path id="DejaVuSans-70" d="M 1159 525 
L 1159 -1331 
L 581 -1331 
L 581 3500 
L 1159 3500 
L 1159 2969 
Q 1341 3281 1617 3432 
Q 1894 3584 2278 3584 
Q 2916 3584 3314 3078 
Q 3713 2572 3713 1747 
Q 3713 922 3314 415 
Q 2916 -91 2278 -91 
Q 1894 -91 1617 61 
Q 1341 213 1159 525 
z
M 3116 1747 
Q 3116 2381 2855 2742 
Q 2594 3103 2138 3103 
Q 1681 3103 1420 2742 
Q 1159 2381 1159 1747 
Q 1159 1113 1420 752 
Q 1681 391 2138 391 
Q 2594 391 2855 752 
Q 3116 1113 3116 1747 
z
" transform="scale(0.015625)"/>
      <path id="DejaVuSans-66" d="M 2375 4863 
L 2375 4384 
L 1825 4384 
Q 1516 4384 1395 4259 
Q 1275 4134 1275 3809 
L 1275 3500 
L 2222 3500 
L 2222 3053 
L 1275 3053 
L 1275 0 
L 697 0 
L 697 3053 
L 147 3053 
L 147 3500 
L 697 3500 
L 697 3744 
Q 697 4328 969 4595 
Q 1241 4863 1831 4863 
L 2375 4863 
z
" transform="scale(0.015625)"/>
     </defs>
     <use xlink:href="#DejaVuSans-54"/>
     <use xlink:href="#DejaVuSans-68" x="61.083984"/>
     <use xlink:href="#DejaVuSans-65" x="124.462891"/>
     <use xlink:href="#DejaVuSans-20" x="185.986328"/>
     <use xlink:href="#DejaVuSans-69" x="217.773438"/>
     <use xlink:href="#DejaVuSans-6e" x="245.556641"/>
     <use xlink:href="#DejaVuSans-74" x="308.935547"/>
     <use xlink:href="#DejaVuSans-65" x="348.144531"/>
     <use xlink:href="#DejaVuSans-72" x="409.667969"/>
     <use xlink:href="#DejaVuSans-73" x="450.78125"/>
     <use xlink:href="#DejaVuSans-65" x="502.880859"/>
     <use xlink:href="#DejaVuSans-63" x="564.404297"/>
     <use xlink:href="#DejaVuSans-74" x="619.384766"/>
     <use xlink:href="#DejaVuSans-69" x="658.59375"/>
     <use xlink:href="#DejaVuSans-6f" x="686.376953"/>
     <use xlink:href="#DejaVuSans-6e" x="747.558594"/>
     <use xlink:href="#DejaVuSans-20" x="810.9375"/>
     <use xlink:href="#DejaVuSans-70" x="842.724609"/>
     <use xlink:href="#DejaVuSans-6f" x="906.201172"/>
     <use xlink:href="#DejaVuSans-69" x="967.382812"/>
     <use xlink:href="#DejaVuSans-6e" x="995.166016"/>
     <use xlink:href="#DejaVuSans-74" x="1058.544922"/>
     <use xlink:href="#DejaVuSans-20" x="1097.753906"/>
     <use xlink:href="#DejaVuSans-6f" x="1129.541016"/>
     <use xlink:href="#DejaVuSans-66" x="1190.722656"/>
    </g>
    <!--  f[0] and f[1] -->
    <g transform="translate(317.195844 203.472) scale(0.1 -0.1)">
     <defs>
      <path id="DejaVuSans-5b" d="M 550 4863 
L 1875 4863 
L 1875 4416 
L 1125 4416 
L 1125 -397 
L 1875 -397 
L 1875 -844 
L 550 -844 
L 550 4863 
z
" transform="scale(0.015625)"/>
      <path id="DejaVuSans-5d" d="M 1947 4863 
L 1947 -844 
L 622 -844 
L 622 -397 
L 1369 -397 
L 1369 4416 
L 622 4416 
L 622 4863 
L 1947 4863 
z
" transform="scale(0.015625)"/>
      <path id="DejaVuSans-61" d="M 2194 1759 
Q 1497 1759 1228 1600 
Q 959 1441 959 1056 
Q 959 750 1161 570 
Q 1363 391 1709 391 
Q 2188 391 2477 730 
Q 2766 1069 2766 1631 
L 2766 1759 
L 2194 1759 
z
M 3341 1997 
L 3341 0 
L 2766 0 
L 2766 531 
Q 2569 213 2275 61 
Q 1981 -91 1556 -91 
Q 1019 -91 701 211 
Q 384 513 384 1019 
Q 384 1609 779 1909 
Q 1175 2209 1959 2209 
L 2766 2209 
L 2766 2266 
Q 2766 2663 2505 2880 
Q 2244 3097 1772 3097 
Q 1472 3097 1187 3025 
Q 903 2953 641 2809 
L 641 3341 
Q 956 3463 1253 3523 
Q 1550 3584 1831 3584 
Q 2591 3584 2966 3190 
Q 3341 2797 3341 1997 
z
" transform="scale(0.015625)"/>
      <path id="DejaVuSans-64" d="M 2906 2969 
L 2906 4863 
L 3481 4863 
L 3481 0 
L 2906 0 
L 2906 525 
Q 2725 213 2448 61 
Q 2172 -91 1784 -91 
Q 1150 -91 751 415 
Q 353 922 353 1747 
Q 353 2572 751 3078 
Q 1150 3584 1784 3584 
Q 2172 3584 2448 3432 
Q 2725 3281 2906 2969 
z
M 947 1747 
Q 947 1113 1208 752 
Q 1469 391 1925 391 
Q 2381 391 2643 752 
Q 2906 1113 2906 1747 
Q 2906 2381 2643 2742 
Q 2381 3103 1925 3103 
Q 1469 3103 1208 2742 
Q 947 2381 947 1747 
z
" transform="scale(0.015625)"/>
     </defs>
     <use xlink:href="#DejaVuSans-20"/>
     <use xlink:href="#DejaVuSans-66" x="31.787109"/>
     <use xlink:href="#DejaVuSans-5b" x="66.992188"/>
     <use xlink:href="#DejaVuSans-30" x="106.005859"/>
     <use xlink:href="#DejaVuSans-5d" x="169.628906"/>
     <use xlink:href="#DejaVuSans-20" x="208.642578"/>
     <use xlink:href="#DejaVuSans-61" x="240.429688"/>
     <use xlink:href="#DejaVuSans-6e" x="301.708984"/>
     <use xlink:href="#DejaVuSans-64" x="365.087891"/>
     <use xlink:href="#DejaVuSans-20" x="428.564453"/>
     <use xlink:href="#DejaVuSans-66" x="460.351562"/>
     <use xlink:href="#DejaVuSans-5b" x="495.556641"/>
     <use xlink:href="#DejaVuSans-31" x="534.570312"/>
     <use xlink:href="#DejaVuSans-5d" x="598.193359"/>
    </g>
   </g>
   <g id="patch_8">
    <path d="M 695.906847 409.124575 
Q 693.650799 433.392997 691.446495 457.104802 
" style="fill: none; stroke: #eeeeee; stroke-width: 0.5; stroke-linecap: round"/>
    <path d="M 693.808161 453.307101 
L 691.446495 457.104802 
L 689.825334 452.936849 
" style="fill: none; stroke: #eeeeee; stroke-width: 0.5; stroke-linecap: round"/>
   </g>
   <g id="text_22">
    <!-- The intersection point of -->
    <g transform="translate(635.952688 391.858187) scale(0.1 -0.1)">
     <use xlink:href="#DejaVuSans-54"/>
     <use xlink:href="#DejaVuSans-68" x="61.083984"/>
     <use xlink:href="#DejaVuSans-65" x="124.462891"/>
     <use xlink:href="#DejaVuSans-20" x="185.986328"/>
     <use xlink:href="#DejaVuSans-69" x="217.773438"/>
     <use xlink:href="#DejaVuSans-6e" x="245.556641"/>
     <use xlink:href="#DejaVuSans-74" x="308.935547"/>
     <use xlink:href="#DejaVuSans-65" x="348.144531"/>
     <use xlink:href="#DejaVuSans-72" x="409.667969"/>
     <use xlink:href="#DejaVuSans-73" x="450.78125"/>
     <use xlink:href="#DejaVuSans-65" x="502.880859"/>
     <use xlink:href="#DejaVuSans-63" x="564.404297"/>
     <use xlink:href="#DejaVuSans-74" x="619.384766"/>
     <use xlink:href="#DejaVuSans-69" x="658.59375"/>
     <use xlink:href="#DejaVuSans-6f" x="686.376953"/>
     <use xlink:href="#DejaVuSans-6e" x="747.558594"/>
     <use xlink:href="#DejaVuSans-20" x="810.9375"/>
     <use xlink:href="#DejaVuSans-70" x="842.724609"/>
     <use xlink:href="#DejaVuSans-6f" x="906.201172"/>
     <use xlink:href="#DejaVuSans-69" x="967.382812"/>
     <use xlink:href="#DejaVuSans-6e" x="995.166016"/>
     <use xlink:href="#DejaVuSans-74" x="1058.544922"/>
     <use xlink:href="#DejaVuSans-20" x="1097.753906"/>
     <use xlink:href="#DejaVuSans-6f" x="1129.541016"/>
     <use xlink:href="#DejaVuSans-66" x="1190.722656"/>
    </g>
    <!--  f[1] and f[2] -->
    <g transform="translate(665.387844 403.056) scale(0.1 -0.1)">
     <use xlink:href="#DejaVuSans-20"/>
     <use xlink:href="#DejaVuSans-66" x="31.787109"/>
     <use xlink:href="#DejaVuSans-5b" x="66.992188"/>
     <use xlink:href="#DejaVuSans-31" x="106.005859"/>
     <use xlink:href="#DejaVuSans-5d" x="169.628906"/>
     <use xlink:href="#DejaVuSans-20" x="208.642578"/>
     <use xlink:href="#DejaVuSans-61" x="240.429688"/>
     <use xlink:href="#DejaVuSans-6e" x="301.708984"/>
     <use xlink:href="#DejaVuSans-64" x="365.087891"/>
     <use xlink:href="#DejaVuSans-20" x="428.564453"/>
     <use xlink:href="#DejaVuSans-66" x="460.351562"/>
     <use xlink:href="#DejaVuSans-5b" x="495.556641"/>
     <use xlink:href="#DejaVuSans-32" x="534.570312"/>
     <use xlink:href="#DejaVuSans-5d" x="598.193359"/>
    </g>
   </g>
   <g id="patch_9">
    <path d="M 388.771814 557.447242 
Q 416.926647 566.706652 444.550445 575.791418 
" style="fill: none; stroke: #eeeeee; stroke-width: 0.5; stroke-linecap: round"/>
    <path d="M 441.375486 572.641872 
L 444.550445 575.791418 
L 440.125833 576.441658 
" style="fill: none; stroke: #eeeeee; stroke-width: 0.5; stroke-linecap: round"/>
   </g>
   <g id="text_23">
    <!-- The intersection point of -->
    <g transform="translate(287.760688 541.546187) scale(0.1 -0.1)">
     <use xlink:href="#DejaVuSans-54"/>
     <use xlink:href="#DejaVuSans-68" x="61.083984"/>
     <use xlink:href="#DejaVuSans-65" x="124.462891"/>
     <use xlink:href="#DejaVuSans-20" x="185.986328"/>
     <use xlink:href="#DejaVuSans-69" x="217.773438"/>
     <use xlink:href="#DejaVuSans-6e" x="245.556641"/>
     <use xlink:href="#DejaVuSans-74" x="308.935547"/>
     <use xlink:href="#DejaVuSans-65" x="348.144531"/>
     <use xlink:href="#DejaVuSans-72" x="409.667969"/>
     <use xlink:href="#DejaVuSans-73" x="450.78125"/>
     <use xlink:href="#DejaVuSans-65" x="502.880859"/>
     <use xlink:href="#DejaVuSans-63" x="564.404297"/>
     <use xlink:href="#DejaVuSans-74" x="619.384766"/>
     <use xlink:href="#DejaVuSans-69" x="658.59375"/>
     <use xlink:href="#DejaVuSans-6f" x="686.376953"/>
     <use xlink:href="#DejaVuSans-6e" x="747.558594"/>
     <use xlink:href="#DejaVuSans-20" x="810.9375"/>
     <use xlink:href="#DejaVuSans-70" x="842.724609"/>
     <use xlink:href="#DejaVuSans-6f" x="906.201172"/>
     <use xlink:href="#DejaVuSans-69" x="967.382812"/>
     <use xlink:href="#DejaVuSans-6e" x="995.166016"/>
     <use xlink:href="#DejaVuSans-74" x="1058.544922"/>
     <use xlink:href="#DejaVuSans-20" x="1097.753906"/>
     <use xlink:href="#DejaVuSans-6f" x="1129.541016"/>
     <use xlink:href="#DejaVuSans-66" x="1190.722656"/>
    </g>
    <!--  f[0] and f[2] -->
    <g transform="translate(317.195844 552.744) scale(0.1 -0.1)">
     <use xlink:href="#DejaVuSans-20"/>
     <use xlink:href="#DejaVuSans-66" x="31.787109"/>
     <use xlink:href="#DejaVuSans-5b" x="66.992188"/>
     <use xlink:href="#DejaVuSans-30" x="106.005859"/>
     <use xlink:href="#DejaVuSans-5d" x="169.628906"/>
     <use xlink:href="#DejaVuSans-20" x="208.642578"/>
     <use xlink:href="#DejaVuSans-61" x="240.429688"/>
     <use xlink:href="#DejaVuSans-6e" x="301.708984"/>
     <use xlink:href="#DejaVuSans-64" x="365.087891"/>
     <use xlink:href="#DejaVuSans-20" x="428.564453"/>
     <use xlink:href="#DejaVuSans-66" x="460.351562"/>
     <use xlink:href="#DejaVuSans-5b" x="495.556641"/>
     <use xlink:href="#DejaVuSans-32" x="534.570312"/>
     <use xlink:href="#DejaVuSans-5d" x="598.193359"/>
    </g>
   </g>
   <g id="text_24">
    <!-- All plots -->
    <g transform="translate(414.036 97.68) scale(0.144 -0.144)">
     <defs>
      <path id="DejaVuSans-41" d="M 2188 4044 
L 1331 1722 
L 3047 1722 
L 2188 4044 
z
M 1831 4666 
L 2547 4666 
L 4325 0 
L 3669 0 
L 3244 1197 
L 1141 1197 
L 716 0 
L 50 0 
L 1831 4666 
z
" transform="scale(0.015625)"/>
      <path id="DejaVuSans-6c" d="M 603 4863 
L 1178 4863 
L 1178 0 
L 603 0 
L 603 4863 
z
" transform="scale(0.015625)"/>
     </defs>
     <use xlink:href="#DejaVuSans-41"/>
     <use xlink:href="#DejaVuSans-6c" x="68.408203"/>
     <use xlink:href="#DejaVuSans-6c" x="96.191406"/>
     <use xlink:href="#DejaVuSans-20" x="123.974609"/>
     <use xlink:href="#DejaVuSans-70" x="155.761719"/>
     <use xlink:href="#DejaVuSans-6c" x="219.238281"/>
     <use xlink:href="#DejaVuSans-6f" x="247.021484"/>
     <use xlink:href="#DejaVuSans-74" x="308.203125"/>
     <use xlink:href="#DejaVuSans-73" x="347.412109"/>
    </g>
   </g>
   <g id="legend_1">
    <g id="patch_10">
     <path d="M 720.914062 155.714375 
L 770.6 155.714375 
Q 772.6 155.714375 772.6 153.714375 
L 772.6 110.68 
Q 772.6 108.68 770.6 108.68 
L 720.914062 108.68 
Q 718.914062 108.68 718.914062 110.68 
L 718.914062 153.714375 
Q 718.914062 155.714375 720.914062 155.714375 
z
" style="fill: #e5e5e5; opacity: 0.8; stroke: #cccccc; stroke-width: 0.5; stroke-linejoin: miter"/>
    </g>
    <g id="line2d_37">
     <path d="M 722.914062 116.778437 
L 732.914062 116.778437 
L 742.914062 116.778437 
" style="fill: none; stroke-dasharray: 9.6,2.4,1.5,2.4; stroke-dashoffset: 0; stroke: #008000; stroke-width: 1.5"/>
    </g>
    <g id="text_25">
     <!-- f[0] -->
     <g transform="translate(750.914062 120.278437) scale(0.1 -0.1)">
      <use xlink:href="#DejaVuSans-66"/>
      <use xlink:href="#DejaVuSans-5b" x="35.205078"/>
      <use xlink:href="#DejaVuSans-30" x="74.21875"/>
      <use xlink:href="#DejaVuSans-5d" x="137.841797"/>
     </g>
    </g>
    <g id="line2d_38">
     <path d="M 722.914062 131.456562 
L 732.914062 131.456562 
L 742.914062 131.456562 
" style="fill: none; stroke: #bf00bf; stroke-width: 1.5; stroke-linecap: square"/>
    </g>
    <g id="text_26">
     <!-- f[1] -->
     <g transform="translate(750.914062 134.956562) scale(0.1 -0.1)">
      <use xlink:href="#DejaVuSans-66"/>
      <use xlink:href="#DejaVuSans-5b" x="35.205078"/>
      <use xlink:href="#DejaVuSans-31" x="74.21875"/>
      <use xlink:href="#DejaVuSans-5d" x="137.841797"/>
     </g>
    </g>
    <g id="line2d_39">
     <path d="M 722.914062 146.134687 
L 732.914062 146.134687 
L 742.914062 146.134687 
" style="fill: none; stroke-dasharray: 5.55,2.4; stroke-dashoffset: 0; stroke: #bfbf00; stroke-width: 1.5"/>
    </g>
    <g id="text_27">
     <!-- f[2] -->
     <g transform="translate(750.914062 149.634687) scale(0.1 -0.1)">
      <use xlink:href="#DejaVuSans-66"/>
      <use xlink:href="#DejaVuSans-5b" x="35.205078"/>
      <use xlink:href="#DejaVuSans-32" x="74.21875"/>
      <use xlink:href="#DejaVuSans-5d" x="137.841797"/>
     </g>
    </g>
   </g>
  </g>
 </g>
 <defs>
  <clipPath id="pd3f02dede5">
   <rect x="108" y="103.68" width="669.6" height="665.28"/>
  </clipPath>
 </defs>
</svg>
